<?xml version="1.0" encoding="UTF-8"?>
<!DOCTYPE svg PUBLIC "-//W3C//DTD SVG 1.1//EN" "http://www.w3.org/Graphics/SVG/1.1/DTD/svg11.dtd">
<!-- Creator: CorelDRAW 2017 -->
<svg xmlns="http://www.w3.org/2000/svg" xml:space="preserve" width="4.2332mm" height="4.2332mm" version="1.1" style="shape-rendering:geometricPrecision; text-rendering:geometricPrecision; image-rendering:optimizeQuality; fill-rule:evenodd; clip-rule:evenodd"
viewBox="0 0 423.32 423.32"
 xmlns:xlink="http://www.w3.org/1999/xlink">
 <defs>
  <style type="text/css">
   <![CDATA[
    .fil0 {fill:#373435}
   ]]>
  </style>
 </defs>
 <g id="Capa_x0020_1">
  <metadata id="CorelCorpID_0Corel-Layer"/>
  <g>
   <path class="fil0" d="M143.62 264.66c0.52,-0.12 1.02,-0.24 1.51,-0.36l-0.02 0.02c-0.48,0.12 -0.97,0.24 -1.48,0.35l-0.01 -0.01zm-53.49 92.29l0 0 -0.1 0.1 -0.09 0.1 0 0 -0.1 0.1 -0.09 0.1 0 0.01 -0.1 0.1 -0.09 0.1 -0.01 0 -0.09 0.1 -0.09 0.1 -0.01 0 -0.09 0.11 -0.09 0.1 -0.01 0 -0.09 0.1 -0.09 0.1 0 0 -0.1 0.11 -0.09 0.09 0 0.01 -0.09 0.1 -0.09 0.1 0 0 -0.1 0.1 -0.09 0.1 0 0 -0.09 0.1 -0.09 0.1 0 0 -0.09 0.11 -0.09 0.09 0 0.01 -0.09 0.1 -0.09 0.09 0 0.01 -0.09 0.09 -0.09 0.1 0 0 -0.09 0.1 -0.09 0.1 0 0 -0.09 0.1 -0.08 0.09 0 0.01 -0.09 0.09 -0.09 0.1 0 0 -0.09 0.1 -0.08 0.09 0 0 -0.09 0.1 -0.08 0.09 0 0 -0.09 0.09 -0.08 0.1 0 0 -0.09 0.09 -0.08 0.09 0 0 -0.08 0.1 -0.08 0.08 -0.01 0.01 -0.08 0.09 -0.08 0.08 0 0.01 -0.08 0.08 -0.08 0.09 0 0 -0.08 0.09 -0.08 0.09 0 0 -0.08 0.08 -0.08 0.09 0 0 -0.08 0.08 -0.08 0.08 0 0 -0.08 0.09 -0.08 0.08 0 0 -0.07 0.08 -0.08 0.08 0 0 -0.08 0.08 -0.07 0.08 -0.15 0.15 -0.15 0.15 -3.61 3.93 0.08 -0.08 3.52 -3.85c1.49,-1.5 3.3,-3.64 5.27,-5.71l0.1 -0.1zm48.47 -48.02l0 0 0.03 -0.02 -0.03 0.02zm0 0l-0.02 0.03 0 0 0.02 -0.03zm-0.07 0.08l-0.01 0 0.03 -0.03 -0.02 0.03zm-0.03 0.02l0 0 0 0 0 0zm0 0l-0.02 0.03 -0.01 0 0.03 -0.03zm-0.03 0.03l-0.02 0.02 0 0 0.02 -0.02zm-0.02 0.02l-0.03 0.03 0 0 0.03 -0.03zm-0.03 0.03l-0.02 0.02 -0.03 0.03 -0.02 0.02 -0.03 0.03 0 0 -0.02 0.02 -0.03 0.03 -0.02 0.02 -0.03 0.03 -0.02 0.02 -0.03 0.03 -0.03 0.02 0 0.01 -0.02 0.02 -0.03 0.02 -0.03 0.03 -0.02 0.02 -0.03 0.03 -0.02 0.02 -0.03 0.03 -0.01 0.01 -0.02 0.01 -0.02 0.03 -0.03 0.02 -0.02 0.03 -0.03 0.02 -0.03 0.03 -0.02 0.02 -0.01 0.01 -0.02 0.02 -0.03 0.02 -0.02 0.03 -0.03 0.02 -0.03 0.03 -0.02 0.02 -0.03 0.03 -0.02 0.01 -0.01 0.01 -0.02 0.03 -0.03 0.02 -0.03 0.03 -0.02 0.02 -0.03 0.03 -0.03 0.02 -0.02 0.02 -0.01 0.01 -0.02 0.02 -0.03 0.03 -0.03 0.02 -0.03 0.03 -0.02 0.02 -0.03 0.03 -0.02 0.02 -0.01 0 -0.02 0.03 -0.03 0.02 -0.03 0.03 -0.03 0.02 -0.03 0.03 -0.02 0.02 -0.03 0.03 -18.24 18.28 18.22 -18.27c0.51,-0.46 0.99,-0.91 1.45,-1.36zm-31.65 32.04l0 0 0 -0.01 0 0.01zm-0.01 0.01l0 0 0 -0.01 0 0.01zm0 0l0 0 0 0.01 0 0 0 0 0 0 0 -0.01zm0 0.01l0 0 0 0.01 0 -0.01zm0 0.01l0 0 -0.01 0 0 0 0 0 0.01 0zm-0.01 0l0 0.01 0 0 0 -0.01zm0 0.01l0 0 0 0.01 0 0 0 0.01 0 0 0 0.01 -0.01 0 0 0.01 0 0 0 0.01 0 0.01 -0.01 0 0 0.01 0 0.01 0 0.01 -0.01 0.01 0 0 0 0 0 0.01 0 0 0 0.01 -0.01 0 0 0.01 0 0.01 0 0 0 0.01 -0.01 0.01 0 0.01 0 0 -0.01 0.01 0 0.01 0 0.01 0 0.01 -0.01 0.01 0 0 0 0 0 0.01 -0.01 0.01 0 0.01 0 0 -0.01 0.02 0 0.01 0 0.01 -0.01 0.02 0 0 -0.01 0.01 0 0.02 0 0.01 -0.01 0 0 0.02 -0.01 0.03 -0.01 0.01 0 0.01 -0.01 0.01 0 0.02 -0.01 0.01 0 0 -0.01 0.02 -0.01 0.02 0 0 0 0.02 -0.01 0.02 0 0.01 -0.01 0.01 -0.01 0.02 0 0.01 -0.01 0.01 0 0.02 -0.01 0.02 -0.01 0 0 0.02 -0.01 0.02 -0.01 0.02 0 0.01 -0.01 0.02 -0.01 0.02c3.09,-0.84 18.93,-17.72 21.21,-20.05l0.15 -0.15 0.17 -0.17 0 0 0.19 -0.18 0.2 -0.2 0.22 -0.21 0 -0.01 0.24 -0.22 0 0 0.25 -0.24 0 0 0.26 -0.26 0 0 0.28 -0.26 0 -0.01 0.29 -0.27 0 -0.01 0.31 -0.29 0 0 0.31 -0.3 0 0 0.33 -0.31 0 0 0.34 -0.33 0 0 0.35 -0.33 0 0 0.35 -0.34 0.01 0 0.36 -0.35 0 -0.01 0.38 -0.35 0 -0.01 0.38 -0.36 0 0 0.39 -0.37 0 -0.01 0.39 -0.38 0.01 0 0.4 -0.38 0 -0.01 0.4 -0.39 0.01 0 0.4 -0.4 0.01 0 0.41 -0.4 0.01 0 0.41 -0.41 0 0 0.42 -0.41 0 0 0.42 -0.41 0.01 -0.01 0.42 -0.41 0 0 0.42 -0.42 0.01 0 0.42 -0.42 0 -0.01 0.42 -0.41 0.01 -0.01 0.41 -0.41 0.01 -0.01 0.42 -0.42 0 0 0.42 -0.42 0 -0.01 0.41 -0.41 0.01 -0.01 0.4 -0.41 0.01 -0.01 0.4 -0.41 0.01 -0.01 0.4 -0.41 0 -0.01 0.39 -0.4 0.01 -0.01 0.39 -0.4 0.01 -0.01 0.37 -0.4 0.01 -0.01 0.37 -0.39 0.01 -0.01 0.36 -0.39 0.01 -0.01 0.35 -0.38 0.01 -0.01 0.34 -0.38 0.01 -0.01 0.33 -0.37 0.01 -0.01 0.33 -0.36 0 -0.01 0.32 -0.36 0.01 -0.01 0.3 -0.35 0 -0.01 0.29 -0.34 0.01 -0.01 0.28 -0.33 0 -0.01 0.27 -0.32 0 -0.01 0.25 -0.31 0.01 -0.01 0.23 -0.31 0.01 0 0.22 -0.29 0 -0.01 0.21 -0.29 0 0 0.19 -0.27 0 -0.01 0.17 -0.26 0.01 -0.01 0.15 -0.24 0 -0.01 0.14 -0.23 0 -0.01 0.12 -0.21 0 -0.01 0.1 -0.21 0 0 0.08 -0.19 1.35 -1.21 4.53 -5.63c1.8,-1.78 2.53,-2.57 4.69,-4.75 3.18,-3.24 5.91,-7.11 9.59,-9.01l-0.66 -0.26 0 -0.01 0 0 0.03 -0.02 0.01 -0.01 0.08 -0.04 0.01 -0.01 0.04 -0.02 0.01 0 0.03 -0.02 0.01 -0.01 0.04 -0.01 0.01 -0.01 0.03 -0.02 0.01 0 0.04 -0.02 0.01 0 0.04 -0.02 0.01 0 0.03 -0.02 0.01 -0.01 0.04 -0.01 0.01 -0.01 0.04 -0.01 0.01 -0.01 0.04 -0.01 0 -0.01 0.04 -0.02 0.01 0 0.04 -0.02 0.01 0 0.04 -0.02 0.01 0 0.04 -0.02 0.01 0 0.04 -0.02 0.01 -0.01 0.04 -0.01 0.01 -0.01 0.04 -0.02 0 0 0.05 -0.02 0 -0.01 0.05 -0.02 0 0 0.05 -0.03 0 0 0.05 -0.02 0 -0.01 0.05 -0.02 0 -0.01 0.05 -0.02 0 -0.01 0.05 -0.03 0 0 0.05 -0.03 0.05 -0.03 0 -0.01 0.04 -0.03 0.01 -0.01 0.04 -0.03 0.01 0 0.04 -0.04 0.01 0 0.04 -0.04 0.01 -0.01 0.04 -0.04 0.01 0 0.04 -0.05 0.01 0 0.04 -0.05 0.01 0 0.04 -0.05 0.01 0 0.04 -0.05 0.01 -0.01 0.04 -0.05 0 -0.01 0.05 -0.05 0 -0.01 0.05 -0.05 0 -0.01 0.05 -0.06 0 -0.01 0.05 -0.06 0 0 0.04 -0.07 0.01 -0.01 0.04 -0.07 0 0 0.05 -0.08 0 0 0.05 -0.08 0 -0.01 0.04 -0.08 0 0 0.05 -0.09 0 0 0.05 -0.09 0 -0.01 0.04 -0.09 0 0 0.05 -0.1 0 -0.01 0.04 -0.1 0 0 0.05 -0.11 0 0 0.04 -0.11 0 -0.01 0.04 -0.11 0.01 -0.01 0.04 -0.12 0 0 0.04 -0.13 0 0 0.04 -0.13 0 0 0.05 -0.14 0 0 0.04 -0.14 0 0 0.04 -0.15 0 0 0.04 -0.15 0.04 -0.16c1.16,-4.62 -0.92,-9.67 -3.97,-12.72 -3.01,-3 -8.87,-5.49 -13.56,-3.77l-0.11 0.04 -0.02 0.01 -0.09 0.04 -0.04 0.01 -0.07 0.03 -0.05 0.02 -0.05 0.02 -0.07 0.02 -0.03 0.02 -0.08 0.03 -0.01 0 -0.09 0.04 -0.01 0 -0.08 0.04 -0.02 0 -0.07 0.03 -0.03 0.01 -0.05 0.02 -0.04 0.02 -0.04 0.02 -0.05 0.02 -0.02 0.01 -0.07 0.03 0 0 -0.07 0.03 -0.01 0.01 -0.06 0.02 -0.02 0.01 -0.04 0.02 -0.03 0.02 -0.03 0.01 -0.04 0.02 -0.02 0.01 -0.05 0.03 -0.01 0 -0.05 0.03 0 0 -0.05 0.03 -0.01 0 -0.04 0.03 -0.02 0 -0.03 0.02 -0.02 0.02 -0.02 0.01 -0.03 0.02 -0.01 0.01 -0.04 0.02 0 0 -0.08 0.06 0 0 -0.03 0.02 -0.01 0.01 -0.02 0.02 -0.02 0.02 -0.02 0.01 -0.03 0.02 -0.02 0.03 0 0 -0.03 0.03 0 0 -0.03 0.03 0 0 -0.02 0.02 -0.01 0.01 -0.01 0.02 -0.01 0.02 -0.01 0.01 -0.02 0.02 0 0.01 -0.02 0.02 0 0.01 -0.02 0.03 0 0 -0.02 0.02 -0.01 0.01 -0.01 0.02 -0.01 0.02 -0.01 0.02 0 0.01 -0.01 0.02 -0.01 0.02 -0.01 0.01 -0.01 0.03 0 0 -0.02 0.04 0 0 -0.01 0.03 -0.01 0.01 -0.01 0.02 0 0.02 -0.01 0.02 -0.01 0.02 0 0.02 -0.02 0.03 0 0 -0.01 0.04 0 0 -0.02 0.04 0 0.01 -0.01 0.03 -0.01 0.02 -0.01 0.02 -0.01 0.03 0 0.02 -0.01 0.03 -0.01 0.01 -0.01 0.04 0 0.01 -0.02 0.04 0 0 -0.02 0.05 0 0.01 -0.02 0.04 -0.01 0.02 -0.01 0.03c-1.27,-0.04 -2.54,0.13 -3.75,0.58 -2.84,1.04 -2.05,1.08 -2.96,2.75l-0.23 -0.6c-1.33,2.1 -11.49,12.3 -22.09,22.81 10.6,-10.51 20.75,-20.7 22.08,-22.79 -3.37,0.96 -0.77,-0.28 -3.05,1.36l-56.03 56.07c-4.29,4.13 -7.5,7.46 -11.31,11.31 -3.85,3.85 -20.41,18.93 -22.46,23.5 0.21,-0.12 0.49,-0.31 0.83,-0.56 -0.35,0.26 -0.63,0.45 -0.85,0.57l-8.59 8.63c-4.3,1.33 -2.87,0.94 -5.75,4.47 -1.77,2.16 -2.8,3.03 -4.61,4.83 -2.91,2.88 -6.61,6.21 -9.48,9.35 -11.3,12.31 -2.05,23.36 3.02,23.31l0.92 -0.3c1.61,2.51 -1.28,1.61 3.73,2.55 1.76,0.33 4.55,-0.56 4.59,-0.57 1.02,-0.33 2.34,-1.09 3.85,-2.15l0.01 0 0.17 -0.03 0.09 -0.01 0.08 -0.01c0.65,0.27 1.29,0.41 1.87,0.4 -0.13,-0.19 -0.3,-0.67 -0.41,-0.71l0.01 0 0.01 0 0.02 -0.01 0.02 0 0.01 -0.01 0.01 0 0.02 0 0.02 -0.01 0.02 0 0 0 0.02 -0.01 0.02 0 0.02 -0.01 0.01 0 0.02 -0.01 0.02 0 0 0 0.02 -0.01 0.01 0 0.02 -0.01 0.01 0 0.01 0 0.01 -0.01 0.02 0 0.01 0 0 0 0.02 -0.01 0.01 0 0.02 -0.01 0 0 0.01 0 0.02 0 0.01 -0.01 0 0 0.02 0 0.01 -0.01 0.01 0 0 0 0.02 0 0.01 -0.01 0.01 0 0 0 0.01 0 0.01 -0.01 0.01 0 0.01 0 0 0 0.02 -0.01 0.01 0 0 0 0.01 0 0 0 0.01 -0.01 0.01 0 0 0 0.01 0 0 0 0.01 -0.01 0.01 0 0.01 0 0 0 0.01 0 0.01 -0.01 0 0 0 0 0.01 0 0 0 0 0 0.01 0 0 0 0 0 0.01 0 0 -0.01 0 0 0.01 0 0 0 0 0 0.01 0c7.63,-2.48 32.06,-28.8 32.74,-30.8l0.01 0 0 -0.01 0.14 -0.02 0.02 -0.01 0.13 -0.02 0.02 -0.01 0.12 -0.03 0.02 0 0.12 -0.02 0.01 -0.01 0.12 -0.02 0.01 0 0.11 -0.03 0.01 0 0.11 -0.02 0.01 0 0.1 -0.02 0.01 -0.01 0.09 -0.01 0.02 -0.01 0.09 -0.02 0.01 0 0.08 -0.02 0.01 0 0.08 -0.02 0.01 0 0.08 -0.02 0.01 0 0.07 -0.01 0.01 -0.01 0.07 -0.01 0 0 0.07 -0.02 0.01 0 0.06 -0.02 0 0 0.06 -0.01 0.01 -0.01 0.05 -0.01 0.01 0 0.05 -0.02 0.01 0 0.05 -0.02 0 0 0.05 -0.01 0 -0.01 0.05 -0.01 0 0 0.04 -0.02 0 0 0.04 -0.02 0.01 0 0.03 -0.02 0.01 0 0.03 -0.02 0.01 0 0.03 -0.02 0 0 0.04 -0.02 0 0 0.03 -0.02 0 0 0.03 -0.02 0 -0.01 0.03 -0.02 0.01 0 0.02 -0.02 0.01 -0.01 0.02 -0.02 0 0 0.03 -0.03 0 0 0.03 -0.03 0 0 0.03 -0.03 0 0 0.03 -0.03 0 0 0.02 -0.04 0.01 0 0.02 -0.03 0 0 0.03 -0.04 0 0 0.03 -0.04 0.03 -0.04 0 0 0 -0.01 0.01 -0.01 0.05 -0.07 0.01 -0.01 0 0 0.03 -0.05 0.01 0 0.07 -0.1 0 -0.01 0.04 -0.05 0 0 0.01 -0.02 0.08 -0.1 0 -0.01 0.05 -0.06 0 0 0.05 -0.07 0 0 0.05 -0.07 0 0 0.06 -0.08 0 0 0.06 -0.08 0 0 0.06 -0.08 0 0 0.07 -0.08 0 0 0.07 -0.09 0 0 0.08 -0.1 0 0 0.08 -0.09 0.09 -0.1 0 0 0.09 -0.11 0.09 -0.11 0.2 -0.22 0.21 -0.23 0.22 -0.24 0 0 0.24 -0.26 0 0 0.25 -0.26 0 0 0.26 -0.28 0 0 0.27 -0.28 0.01 0 0.28 -0.29 0 -0.01 0.29 -0.3 0.01 0 0.3 -0.31 0 0 0.32 -0.32 0 0 0.32 -0.32 0.01 -0.01 0.32 -0.33 0.01 0 0.34 -0.34 0 -0.01 0.35 -0.34 0 0 0.35 -0.35 0.01 -0.01 0.35 -0.35 0.01 -0.01 0.36 -0.36 0.01 0 0.37 -0.37 0 0 0.37 -0.37 0.01 -0.01 0.38 -0.37 0.01 -0.01 0.37 -0.37 0.01 -0.01 0.38 -0.38 0.01 -0.01 0.39 -0.37 0.01 -0.02 0.38 -0.37 0.01 -0.02 0.39 -0.38 0.01 -0.01 0.39 -0.38 0.01 -0.01 0.38 -0.39 0.02 -0.01 0.38 -0.39 0.02 -0.01 0.38 -0.38 0.01 -0.02 0.39 -0.38 0.01 -0.01 0.38 -0.39 0.01 -0.01 0.38 -0.38 0.02 -0.02 0.37 -0.38 0.02 -0.01 0.37 -0.38 0.02 -0.02 0.36 -0.37 0.02 -0.02 0.36 -0.37 0.02 -0.02 0.36 -0.37 0.01 -0.02 0.36 -0.36 0.01 -0.02 0.35 -0.36 0.02 -0.02 0.34 -0.36 0.01 -0.02 0.34 -0.35 0.01 -0.02 0.33 -0.35 0.01 -0.02 0.32 -0.34 0.02 -0.02 0.31 -0.34 0.01 -0.02 0.3 -0.33 0.02 -0.01 0.07 -0.09 0.24 -0.26 0.28 -0.32 0.01 -0.02 0.27 -0.31 0.02 -0.02 0.26 -0.3 0.01 -0.02 0.25 -0.3 0.02 -0.01 0.23 -0.29 0.02 -0.02 0.22 -0.28 0.01 -0.02 0.21 -0.27 0.02 -0.02 0.2 -0.26 0.01 -0.01 0.18 -0.26 0.01 -0.01 0.17 -0.24 0.02 -0.02 0.15 -0.23 0.01 -0.02 0.14 -0.22 0.01 -0.01 0.12 -0.21 0.01 -0.02 0.11 -0.2 0.01 -0.01 0.09 -0.19 0 -0.01 0.08 -0.18 0 -0.01 0.06 -0.16 0.01 -0.01 0 -0.01 0.13 -0.06 0.01 -0.01 0.12 -0.07 0.01 -0.01 0.13 -0.07 0.01 -0.01 0.14 -0.08 0.01 0 0.13 -0.09 0.01 0 0.41 -0.27 0.04 -0.03 0.01 0 0.14 -0.11 0.01 0 0.15 -0.11 0.01 -0.01 0.15 -0.11 0.01 0 0.16 -0.12 0.01 0 0.15 -0.12 0.01 -0.01 0.16 -0.12 0.01 -0.01 0.16 -0.12 0.01 -0.01 0.16 -0.13 0 0 0.17 -0.13 0.01 -0.01 0.16 -0.14 0.01 0 0.16 -0.14 0.01 -0.01 0.17 -0.14 0 0 0.17 -0.15 0.01 -0.01 0.17 -0.14 0 -0.01 0.17 -0.15 0.01 0 0.02 -0.02 0.29 -0.26 0.03 -0.03 0.01 -0.01 0.17 -0.15 0.01 -0.01 0.17 -0.16 0 0 0.17 -0.16 0.01 -0.01 0.17 -0.16 0.01 -0.01 0.16 -0.16 0.01 -0.01 0.17 -0.16 0 0 0.17 -0.17 0.01 -0.01 0.16 -0.16 0.01 -0.01 0.17 -0.16 0 -0.01 0.17 -0.17 0 0 0.17 -0.17 0 -0.01 0.17 -0.17 0 0 0.16 -0.17 0.01 -0.01 0.16 -0.17 0 0 0.16 -0.17 0 -0.01 0.16 -0.17 0 0 0.16 -0.18 0 0 0.15 -0.17 0.01 -0.01 0.15 -0.17 0 0 0.15 -0.17 0 0 0.15 -0.18 0 0 0.14 -0.17 0.01 0 0.28 -0.34 0 0 0.13 -0.17 0 0 0.14 -0.17 0 0 0.12 -0.17 0.01 0 0.12 -0.16 0 0 0.12 -0.17 0 0 0.12 -0.16 0 0 0.11 -0.16 0 0 0.11 -0.16 0.11 -0.15 0 0 0.1 -0.15 0 0 0.09 -0.15 0 0 0.1 -0.15 0.08 -0.15 0 0 0.08 -0.14 0.08 -0.14 -0.03 0.01 -0.03 0.01 -0.03 0.01 -0.04 0.01 -0.01 0.01 -0.02 0 -0.03 0.01 -0.03 0.02 -0.03 0.01 -0.03 0.01 -0.01 0 -0.03 0.01 -0.03 0.01 -0.03 0.02 -0.03 0.01 -0.03 0.01 -0.01 0.01 -0.03 0.01 -0.03 0.01 -0.03 0.02 -0.04 0.01 -0.01 0.01 -0.02 0.01 -0.03 0.01 -0.04 0.02 -0.03 0.01 -0.03 0.02 -0.01 0 -0.03 0.02 -0.03 0.01 -0.04 0.02 -0.03 0.02 -0.02 0 -0.01 0.01 -0.04 0.02 -0.03 0.02 -0.04 0.02 -0.03 0.02 0 0 -0.07 0.03 -0.04 0.02 -0.03 0.02 -0.02 0.01 -0.02 0.01 -0.03 0.02 -0.04 0.02 -0.03 0.02 -0.04 0.02 0 0.01 -0.03 0.01 -0.04 0.03 -0.04 0.02 -0.03 0.02 -0.03 0.01 -0.01 0.01 -0.03 0.02 -0.04 0.02 -0.03 0.03 -0.01 0c0.58,-0.37 1.14,-0.65 1.64,-0.81 0.2,-0.44 0.26,-0.63 0.3,-0.75zm0.01 -0.04l0 0 0 0zm0 0l0.01 0 -0.01 0zm-1.95 1.6l-0.03 0.02 -0.01 0 0.04 -0.02zm-0.14 0.09l0 0 0.1 -0.07 -0.03 0.02 -0.03 0.02 -0.04 0.03zm0 0l-0.04 0.02 0 0 0.04 -0.02zm-0.07 0.04l-0.01 0.01 0.01 -0.01 0 0zm-0.01 0.01l-0.03 0.02 0 0 0.03 -0.02zm-0.03 0.02l-0.03 0.02 -0.01 0 0.04 -0.02zm-0.04 0.02l-0.03 0.03 0 0 0.03 -0.03zm-0.07 0.05l0 0 -0.01 0.01 -0.03 0.02 0 0 0.03 -0.02 0.01 -0.01zm-0.04 0.03l-0.03 0.02 0 0 0.03 -0.02zm-7.27 7.56l0 0.01c0.09,-0.45 -0.09,-0.17 0.08,-0.41 -0.07,0.1 -0.08,0.11 -0.07,0.12l0 0 0 0 0 0 0.01 0.01 0 0 0 0 0.01 0.01 0 0 0 0.02 0 0 0 0.01 0 0 0 0.01 0 0.02 0 0.02 0 0 0 0.02 0 0 0 0.03 0 0.01 -0.01 0.01 0 0.02 0 0.02 0 0.01 -0.01 0.02 0 0.01 -0.01 0.03zm57.47 -89.8l0 -0.01 0.01 0 -0.01 0.01zm0.1 -0.03l0.01 0 0.1 -0.03 -0.11 0.03zm0.11 -0.03l0 0 0.03 0 -0.03 0zm0.1 -0.02l0 0 0.11 -0.03 -0.11 0.03zm0.11 -0.03l0 0 0.05 -0.01 0.05 -0.01 0.1 -0.03 0.08 -0.01 0.03 -0.01 0.1 -0.02 0.1 -0.02 0 0 0.1 -0.03 0.1 -0.02 0.03 0 0.08 -0.02 0 0 0.2 -0.04 0.1 -0.01 0.07 -0.02 0.03 0 0.1 -0.02 0.09 -0.01 0.01 0 0.1 -0.02 0 0 0.19 -0.02 0.01 -0.01 0.1 -0.01 0.04 0 0.06 -0.01 0.1 -0.01 0.06 -0.01 0.04 0 0.1 -0.01 0.09 -0.01 0.01 0 0.1 0 0.1 -0.01 0.01 0 0.09 0 0.1 -0.01 0.29 0 0.1 0c0.2,0 0.4,0.01 0.6,0.03l0.1 0.01 0.1 0.01 0.09 0.01 0.2 0.03 0.1 0.01 0 0.01 0.1 0.01 0.1 0.02 0.1 0.02 0.1 0.02 0.1 0.03 0.11 0.02 -4.91 0.18zm3.11 144.49c6.69,-0.81 11.1,-7.72 16.21,-10.3 1.1,-2.49 0.26,-1.24 1.82,-2.87 0.62,-0.65 0.64,-0.49 1.58,-1.2 1.57,-1.19 1.73,-1.44 4.21,-2.35 0.8,-0.82 2.09,-1.68 2.87,-2.11 1.32,-2.19 -0.51,-0.07 1.89,-2.63 0.55,-0.59 0.91,-0.83 1.47,-1.29 1.65,-1.31 1.74,-1.44 4.32,-2.38 0.77,-1.49 12.85,-11.2 14,-11.54 1.4,-2.95 10.36,-10.25 13.8,-12.4 1.56,-0.98 0.12,-0.14 2.35,-1.18 5,-5.6 15.59,-9.78 11.68,-21.25 -5.08,-14.85 -20.78,-5.73 -21.96,-5.03 -3.67,1.01 -6.47,2.76 -6.47,2.76 -1.17,2.48 0.22,1.46 -2.68,3.57 -1.67,1.21 -1.58,0.99 -3.91,1.84 -0.79,1.63 0.94,0.11 -1,0.83 -1.14,1.98 -0.26,0.85 -1.41,2.25l-13.36 11.16c-2.49,1.53 -0.8,0.48 -3.08,1.52 -1.69,2.04 -21.82,19.07 -24.3,19.92 -2.27,3.91 -10.25,10.34 -14.07,12.05 -2.44,3.21 -5.45,6.97 -4.14,13.28 0.93,4.47 3.88,7.65 7.89,9.22 5.05,1.98 8.91,0.52 12.29,-1.87zm-53.54 -62.27l0.03 -0.02 -0.03 0.02zm0.17 -0.11l0 0 0 0zm33.73 -33.74l0.02 -0.02 -0.02 0.02zm0.05 -0.05l0.03 -0.02 -0.03 0.02zm0.08 -0.07l0.02 -0.03 -0.02 0.03zm0.02 -0.03l0.03 -0.02 -0.03 0.02zm21.99 -48.18c-1.91,-0.68 -3.69,-0.5 -5.61,-0.04l5.61 0.04zm-5.72 -0.01l-0.07 0.02 0.07 -0.02zm-0.21 0.05l-0.09 0.02 0.09 -0.02zm5.63 -0.14l0.1 0.03 0.2 0.07 -0.3 -0.1zm123.92 88.53l-0.07 -0.26c-3.02,-10.26 -13.96,-40.37 -14.56,-45.78 -2.87,-5.73 -5.17,-17.49 -7.85,-24.32l-20.43 -61.65c-1.49,-4.84 -4.12,-10.28 -3.52,-12.19l13.43 -12.99c2.57,-4.51 6.93,-7.55 10.48,-11.02 4.02,-3.93 8.12,-8.45 11.78,-10 0.41,-1.47 -0.74,-0.41 0.88,-0.84 1.2,-3.12 15.41,-17.4 19.84,-19.6 1.9,-1.51 3.5,-3.69 5.2,-5.36 2.22,-2.19 3.05,-2.98 5.26,-5.09 3.16,-3.01 7.31,-8.01 10.87,-10.06 1.51,-3.24 5.01,-6.76 8.21,-7.6 1.11,-5.87 5.84,-8.16 1.68,-16.45 -2.87,-5.7 -7.8,-5.97 -14.52,-6.66 -0.75,1.67 0.82,0.54 -2.2,2.44 -0.32,0.21 -0.63,0.41 -0.94,0.61 -1.03,-0.12 -2.12,-0.23 -3.26,-0.34 -0.75,1.67 0.82,0.54 -2.2,2.44 -8.81,5.54 -11.92,12.39 -17.9,14.99 -3.63,4.62 -20.58,18.63 -23.12,23.1 -2.18,2.8 -1.84,2.84 -4.95,4.38 -0.89,1.27 -8.74,8.44 -9.89,8.97 -1.8,3.36 -6.46,8.64 -9.92,9.83 -0.5,1.97 1.53,0.56 -4.07,5.41 -1.92,1.66 -3.12,2.83 -4.93,4.53 -2.52,2.35 -7.22,7.85 -10.33,9.41l-0.6 0.51c-0.66,-0.07 -1.41,-0.2 -2.3,-0.39 -2.57,-0.54 -5.86,-2.12 -9.2,-3.22 -5.09,-1.68 -13.63,-5.15 -18.36,-6.2 -1.1,-0.2 -19.23,-5.54 -19.77,-7.03 -0.15,-0.43 -0.51,-0.4 -0.77,-0.6l-56.91 -20.28c-3.08,-1.08 -6.95,-2.08 -10.03,-3.28 -2.58,-1.01 -5.75,-2.41 -8.31,-2.96l-10.74 -3.29c0.47,-0.9 1.22,-1.67 2.17,-2.33 1.91,-0.53 3.93,-0.97 5.85,-1.37 5.35,-1.13 10.35,-3.76 16.11,-4.9 5.36,-0.02 27.19,-8.03 34.28,-10.02l16.57 -5.68c14.64,-3.55 39.03,-11.29 52.12,-15.87l137.37 -41.83c4.84,-1.78 30.65,-9.86 34.7,-9.96 -0.45,8.04 -9.28,29.13 -11.65,38.89 -2.9,12.02 -8.14,24.47 -11.95,36.68 -6.97,22.3 -18.26,55.76 -23.45,75.98l-47.86 148.95c-0.06,0.89 -0.14,1.64 -0.24,2.3zm4.88 61.26c1.86,-0.36 3.63,-0.91 5.22,-1.08l5.66 -7.86c0.14,-0.16 0.41,-0.41 0.61,-0.6 0.24,-4.57 23.32,-74.56 24.19,-76.76 1.95,-4.95 2.87,-10.82 4.56,-15.38 1.82,-4.88 3.4,-9.42 4.98,-14.61l43.43 -136.52c3.74,-9.87 5.72,-21.19 9.53,-31.04 8.6,-22.18 21.38,-66.81 29.27,-91.35 1.53,-4.74 4.5,-10.65 2.99,-15.81 -5.99,-20.41 -31.76,-2.33 -56.55,2.92l-106.94 33.15c-4.9,1.85 -11.36,3.07 -16.3,4.7 -13.9,4.59 -41.77,12.28 -52.73,16.76l-38.76 11.39c-4.89,1.64 -9.66,2.96 -14.89,4.79 -19.47,6.8 -45.61,13.09 -61.2,18.89 -11.4,4.24 -31.27,8.13 -40.69,13.05 -5,1.79 -8.95,3.71 -10.69,5.82 -3.22,3.9 -3.62,11.02 -0.51,15.62 4.05,6.02 19.4,9.49 27.8,12.6l147.48 51.77 -0.02 0c1.37,1.52 -0.8,0.24 2.37,2 3.73,2.05 5.86,-0.52 8.5,7.34 2.33,6.81 0.29,3.14 3.04,4.77 -0.08,3 6.27,19.75 7.75,24.78 2.61,8.85 5.59,17.37 8.44,25.73l25.23 75.44c5.93,15.21 11.34,37.13 16.86,51.16 6.33,16.05 14.47,10.59 20.19,9.96l1.18 -1.63zm-139.76 -111.28c3.85,-1.32 0.92,0.36 3.41,-2.01 3.21,-2.96 14.84,-14.88 15.4,-17.36 -3.69,1.88 -6.42,5.77 -9.58,8.98 -2.17,2.21 -2.89,2.97 -4.7,4.77l-4.53 5.62zm-109.45 106.98l0.01 0 0.01 -0.01 -0.01 0.02 -0.01 -0.01zm23.7 -198.53c-0.6,1.17 0.92,0.36 -1.57,2.17 -1.8,1.32 0.08,0.52 -2.16,0.64 -1.09,2.93 -3.05,5.09 -5.38,7.74 -1.36,1.52 -2,2.33 -3.09,3.61 -1.92,2.29 -0.84,1.32 -3.28,2.73l-3.97 5.21c-1.05,2.85 0.56,0.68 -1.85,3.65 -1.04,1.2 -1.52,1.4 -3.09,2.49 -1.24,1.4 -9.7,11.91 -10.99,12.55 -1,2.73 -1.2,3.01 -2.76,4.81 -0.65,0.72 -0.73,0.88 -1.41,1.49 -1.28,1.12 -0.48,0.4 -2.12,1.4 -3.89,6.94 -16.53,17.65 -18.17,24.59 -1.65,7.21 1.28,12.43 6.5,14.83 7.14,3.33 11.71,0.2 16.2,-3.08 1.44,-3.25 3.37,-5.9 6.62,-7.82l2.68 -3.25c2.61,-5.9 21.98,-27.52 27.64,-34.45 1.48,-1.85 2.92,-3.69 4.61,-5.7 2.49,-2.93 2,-3.09 5.33,-5.01l0.64 -1.49c2.41,-5.89 10.75,-10.5 7.74,-19.45 -1.44,-4.33 -2.64,-5.69 -6.45,-7.46 -4.13,-1.96 -7.78,-0.4 -11.67,-0.2zm-11.04 147.18c-0.31,0.26 -0.6,0.5 -0.86,0.7 0.26,-0.2 0.55,-0.44 0.86,-0.7zm151.52 -141.25c0.58,0.36 1.07,0.73 1.43,1.11 1.37,1.44 2.01,3.86 2.7,6.39 -0.7,-2.53 -1.34,-4.94 -2.71,-6.38 -0.36,-0.39 -0.84,-0.76 -1.42,-1.12z"/>
  </g>
 </g>
</svg>
