<?xml version="1.0" encoding="UTF-8"?>
<!DOCTYPE svg PUBLIC "-//W3C//DTD SVG 1.1//EN" "http://www.w3.org/Graphics/SVG/1.1/DTD/svg11.dtd">
<!-- Creator: CorelDRAW 2017 -->
<svg xmlns="http://www.w3.org/2000/svg" xml:space="preserve" width="5.5878mm" height="5.5878mm" version="1.1" style="shape-rendering:geometricPrecision; text-rendering:geometricPrecision; image-rendering:optimizeQuality; fill-rule:evenodd; clip-rule:evenodd"
viewBox="0 0 558.78 558.78"
 xmlns:xlink="http://www.w3.org/1999/xlink">
 <defs>
  <style type="text/css">
   <![CDATA[
    .fil0 {fill:none}
    .fil1 {fill:#FEFEFE}
    .fil2 {fill:black}
    .fil41 {fill:#373435;fill-opacity:0.180392}
    .fil14 {fill:url(#id0)}
    .fil15 {fill:url(#id1)}
    .fil38 {fill:url(#id2)}
    .fil36 {fill:url(#id3)}
    .fil30 {fill:url(#id4)}
    .fil21 {fill:url(#id5)}
    .fil28 {fill:url(#id6)}
    .fil39 {fill:url(#id7)}
    .fil6 {fill:url(#id8)}
    .fil26 {fill:url(#id9)}
    .fil22 {fill:url(#id10)}
    .fil18 {fill:url(#id11)}
    .fil17 {fill:url(#id12)}
    .fil13 {fill:url(#id13)}
    .fil3 {fill:url(#id14)}
    .fil20 {fill:url(#id15)}
    .fil27 {fill:url(#id16)}
    .fil32 {fill:url(#id17)}
    .fil24 {fill:url(#id18)}
    .fil9 {fill:url(#id19)}
    .fil10 {fill:url(#id20)}
    .fil25 {fill:url(#id21)}
    .fil5 {fill:url(#id22)}
    .fil8 {fill:url(#id23)}
    .fil29 {fill:url(#id24)}
    .fil37 {fill:url(#id25)}
    .fil4 {fill:url(#id26)}
    .fil31 {fill:url(#id27)}
    .fil35 {fill:url(#id28)}
    .fil19 {fill:url(#id29)}
    .fil11 {fill:url(#id30)}
    .fil16 {fill:url(#id31)}
    .fil7 {fill:url(#id32)}
    .fil12 {fill:url(#id33)}
    .fil23 {fill:url(#id34)}
    .fil34 {fill:url(#id35)}
    .fil40 {fill:url(#id36)}
    .fil33 {fill:url(#id37)}
   ]]>
  </style>
  <linearGradient id="id0" gradientUnits="userSpaceOnUse" x1="482.83" y1="75.98" x2="-211.74" y2="114.01">
   <stop offset="0" style="stop-opacity:1; stop-color:#3E4095"/>
   <stop offset="0.0784314" style="stop-opacity:1; stop-color:#0D6EFD"/>
   <stop offset="0.321569" style="stop-opacity:1; stop-color:#00AFEF"/>
   <stop offset="0.619608" style="stop-opacity:1; stop-color:#0D6EFD"/>
   <stop offset="1" style="stop-opacity:1; stop-color:#00AFEF"/>
  </linearGradient>
  <linearGradient id="id1" gradientUnits="userSpaceOnUse" xlink:href="#id0" x1="482.83" y1="75.98" x2="-211.8" y2="114.02">
  </linearGradient>
  <linearGradient id="id2" gradientUnits="userSpaceOnUse" xlink:href="#id0" x1="482.79" y1="75.97" x2="-211.7" y2="114">
  </linearGradient>
  <linearGradient id="id3" gradientUnits="userSpaceOnUse" xlink:href="#id0" x1="482.88" y1="76.09" x2="-211.88" y2="114.16">
  </linearGradient>
  <linearGradient id="id4" gradientUnits="userSpaceOnUse" xlink:href="#id0" x1="482.78" y1="75.93" x2="-211.64" y2="113.93">
  </linearGradient>
  <linearGradient id="id5" gradientUnits="userSpaceOnUse" xlink:href="#id0" x1="482.74" y1="76.01" x2="-211.2" y2="113.97">
  </linearGradient>
  <linearGradient id="id6" gradientUnits="userSpaceOnUse" xlink:href="#id0" x1="482.84" y1="75.92" x2="-211.74" y2="113.95">
  </linearGradient>
  <linearGradient id="id7" gradientUnits="userSpaceOnUse" xlink:href="#id0" x1="482.78" y1="76.04" x2="-211.68" y2="114.06">
  </linearGradient>
  <linearGradient id="id8" gradientUnits="userSpaceOnUse" xlink:href="#id0" x1="482.82" y1="75.99" x2="-211.78" y2="114.05">
  </linearGradient>
  <linearGradient id="id9" gradientUnits="userSpaceOnUse" xlink:href="#id0" x1="482.74" y1="76.07" x2="-211.58" y2="114.08">
  </linearGradient>
  <linearGradient id="id10" gradientUnits="userSpaceOnUse" xlink:href="#id0" x1="482.77" y1="75.99" x2="-211.57" y2="113.99">
  </linearGradient>
  <linearGradient id="id11" gradientUnits="userSpaceOnUse" xlink:href="#id0" x1="482.8" y1="76" x2="-211.71" y2="114.03">
  </linearGradient>
  <linearGradient id="id12" gradientUnits="userSpaceOnUse" xlink:href="#id0" x1="482.74" y1="76.01" x2="-211.67" y2="114.03">
  </linearGradient>
  <linearGradient id="id13" gradientUnits="userSpaceOnUse" xlink:href="#id0" x1="482.7" y1="76.27" x2="-211.62" y2="114.34">
  </linearGradient>
  <linearGradient id="id14" gradientUnits="userSpaceOnUse" xlink:href="#id0" x1="482.63" y1="76.02" x2="-211.56" y2="114.02">
  </linearGradient>
  <linearGradient id="id15" gradientUnits="userSpaceOnUse" xlink:href="#id0" x1="482.88" y1="75.96" x2="-211.78" y2="114">
  </linearGradient>
  <linearGradient id="id16" gradientUnits="userSpaceOnUse" xlink:href="#id0" x1="482.86" y1="76.07" x2="-211.84" y2="114.13">
  </linearGradient>
  <linearGradient id="id17" gradientUnits="userSpaceOnUse" xlink:href="#id0" x1="482.49" y1="75.96" x2="-211.51" y2="113.93">
  </linearGradient>
  <linearGradient id="id18" gradientUnits="userSpaceOnUse" xlink:href="#id0" x1="482.79" y1="75.98" x2="-211.66" y2="114">
  </linearGradient>
  <linearGradient id="id19" gradientUnits="userSpaceOnUse" xlink:href="#id0" x1="482.94" y1="76.01" x2="-211.86" y2="114.08">
  </linearGradient>
  <linearGradient id="id20" gradientUnits="userSpaceOnUse" xlink:href="#id0" x1="482.62" y1="75.93" x2="-211.38" y2="113.89">
  </linearGradient>
  <linearGradient id="id21" gradientUnits="userSpaceOnUse" xlink:href="#id0" x1="482.78" y1="75.99" x2="-211.67" y2="114.01">
  </linearGradient>
  <linearGradient id="id22" gradientUnits="userSpaceOnUse" xlink:href="#id0" x1="482.76" y1="76.02" x2="-211.6" y2="114.04">
  </linearGradient>
  <linearGradient id="id23" gradientUnits="userSpaceOnUse" xlink:href="#id0" x1="482.77" y1="75.94" x2="-211.63" y2="113.95">
  </linearGradient>
  <linearGradient id="id24" gradientUnits="userSpaceOnUse" xlink:href="#id0" x1="482.81" y1="75.96" x2="-211.72" y2="113.99">
  </linearGradient>
  <linearGradient id="id25" gradientUnits="userSpaceOnUse" xlink:href="#id0" x1="482.81" y1="75.98" x2="-211.72" y2="114.01">
  </linearGradient>
  <linearGradient id="id26" gradientUnits="userSpaceOnUse" xlink:href="#id0" x1="482.79" y1="76.08" x2="-211.7" y2="114.12">
  </linearGradient>
  <linearGradient id="id27" gradientUnits="userSpaceOnUse" xlink:href="#id0" x1="482.9" y1="75.73" x2="-211.87" y2="113.76">
  </linearGradient>
  <linearGradient id="id28" gradientUnits="userSpaceOnUse" xlink:href="#id0" x1="482.79" y1="75.84" x2="-211.7" y2="113.84">
  </linearGradient>
  <linearGradient id="id29" gradientUnits="userSpaceOnUse" xlink:href="#id0" x1="482.82" y1="76.04" x2="-211.72" y2="114.08">
  </linearGradient>
  <linearGradient id="id30" gradientUnits="userSpaceOnUse" xlink:href="#id0" x1="482.55" y1="76" x2="-211.52" y2="113.98">
  </linearGradient>
  <linearGradient id="id31" gradientUnits="userSpaceOnUse" xlink:href="#id0" x1="482.82" y1="75.97" x2="-211.73" y2="114">
  </linearGradient>
  <linearGradient id="id32" gradientUnits="userSpaceOnUse" xlink:href="#id0" x1="482.86" y1="75.95" x2="-211.8" y2="113.99">
  </linearGradient>
  <linearGradient id="id33" gradientUnits="userSpaceOnUse" xlink:href="#id0" x1="482.86" y1="75.97" x2="-211.9" y2="114.03">
  </linearGradient>
  <linearGradient id="id34" gradientUnits="userSpaceOnUse" xlink:href="#id0" x1="482.71" y1="75.88" x2="-211.63" y2="113.88">
  </linearGradient>
  <linearGradient id="id35" gradientUnits="userSpaceOnUse" xlink:href="#id0" x1="482.79" y1="76.02" x2="-211.61" y2="114.06">
  </linearGradient>
  <linearGradient id="id36" gradientUnits="userSpaceOnUse" xlink:href="#id0" x1="482.75" y1="75.99" x2="-211.68" y2="114.01">
  </linearGradient>
  <linearGradient id="id37" gradientUnits="userSpaceOnUse" xlink:href="#id0" x1="482.88" y1="75.92" x2="-212.09" y2="114">
  </linearGradient>
 </defs>
 <g id="Capa_x0020_1">
  <metadata id="CorelCorpID_0Corel-Layer"/>
  <rect class="fil0" x="-0" y="-0" width="558.79" height="558.79"/>
  <g id="_3057032913872">
   <g>
    <g>
     <path class="fil1" d="M106.09 269.17c4.73,-0.22 9.16,-2.14 14.18,0.24 4.59,2.17 6.06,3.82 7.83,9.08 3.65,10.84 -6.49,16.45 -9.39,23.61 6.04,-3 15.15,-15.62 11.13,-25.14 -4.27,-10.1 -21.76,-15.47 -23.75,-7.79z"/>
     <path class="fil1" d="M185.24 349.06c7.28,-1.59 11.59,-4.8 18.67,2.57 1.02,1.07 3.86,5.95 4.23,7.16 1.79,5.84 -0.55,6.35 -1.66,11.51 1.12,-0.72 2.61,-0.43 3.65,-4.64 1.39,-5.59 -1.13,-11.7 -4.84,-15.42 -3.66,-3.67 -10.73,-6.68 -16.47,-4.56 -3.48,1.29 -2.5,1.31 -3.58,3.38z"/>
     <path class="fil1" d="M274.61 252.36c3.78,-1.9 9.48,-8.58 12.54,-11.43 2.2,-2.06 3.66,-3.49 5.99,-5.5 6.8,-5.89 4.34,-4.18 4.94,-6.57 -4.57,2.25 -12.89,11.79 -18.06,16.37 -4.84,4.29 -3.49,2.84 -5.41,7.13z"/>
     <path class="fil1" d="M356.22 172.67c7.26,-3.16 11.03,-11.48 21.73,-18.2 3.67,-2.31 1.76,-0.94 2.68,-2.97 -5.15,0.67 -21.24,15.11 -24.41,21.17z"/>
     <path class="fil1" d="M229.85 244.35c-2.8,-3.52 -6.39,-3.97 -11.52,-5.66 -5.02,-1.65 -7.82,-3.28 -13.41,-3.6 0.31,0.24 0.75,0.21 0.93,0.73 0.66,1.8 22.67,8.29 24,8.53z"/>
     <path class="fil1" d="M265.21 300.82c-1.79,-4.48 -2.26,-9.9 -4.79,-12.56 -2.15,-2.26 -8.19,-4.42 -12.07,-4.57 1.64,1.83 -0.98,0.29 2.84,2.41 4.55,2.53 7.11,-0.63 10.34,8.94 2.8,8.27 0.35,3.78 3.68,5.78z"/>
     <path class="fil1" d="M120.72 457.72c3.39,-1.74 9.72,-7.98 11.61,-11.55 -3.65,1.14 -9.75,7.75 -10.57,9.04 -1.41,2.18 -0.18,-0.09 -1.04,2.51z"/>
     <path class="fil1" d="M214.78 510.41c2.47,-1.09 3.63,-1.97 5.49,-3.55 0.33,-0.28 1.79,-1.53 1.91,-1.66 1.82,-1.92 0.15,0.08 1.83,-2.58 -3.01,1.1 -3.2,1.41 -5.11,2.85 -1.14,0.86 -1.16,0.67 -1.91,1.45 -1.9,1.99 -0.88,0.47 -2.21,3.49z"/>
     <path class="fil1" d="M76.46 303.46c1.91,-1.3 2.52,-1.55 3.75,-3.03 2.96,-3.57 1,-0.94 2.24,-4.42 -2.48,1.49 -2.03,0.79 -3.8,2.87 -3.13,3.68 -1,0.73 -2.19,4.58z"/>
     <path class="fil1" d="M322.14 206.03c3.77,-1.87 3.36,-1.91 6,-5.31 -2.53,0.5 -2.56,0.55 -3.91,1.81 -3.9,3.61 0.05,-0.68 -2.09,3.5z"/>
     <path class="fil1" d="M101.57 272.6c2.7,-0.16 0.43,0.81 2.61,-0.79 3,-2.21 1.16,-1.22 1.91,-2.64l-3.62 0.95 -0.9 2.48z"/>
    </g>
    <g>
     <path class="fil1" d="M72.17 460.33c5.58,-3.09 49.38,-47.48 56.7,-55.19 9.48,-9.98 52.95,-51.9 56.07,-56.85 -4.13,1.18 -0.94,-0.3 -3.72,1.68l-68.04 68.06c-5.21,5.04 -9.07,9.09 -13.72,13.75 -4.66,4.68 -24.81,22.99 -27.29,28.55z"/>
     <path class="fil1" d="M356.29 448.82l-1.28 1.51c-0.15,0.19 -0.36,0.49 -0.53,0.71l-3.67 4.46 -17.48 -53.4c-1.02,-1.76 -1.79,-2.08 -2.87,-3.1 0.74,6.56 14.02,43.12 17.68,55.58 1.17,4.01 1.63,4.62 4.84,6.52 1.6,-5.4 2.93,-6.17 3.31,-12.28z"/>
     <path class="fil1" d="M72.3 358.71c4.15,-2.1 1.02,0.4 4.34,-3.51 8.12,-9.58 39.61,-47.2 41.26,-51.32 -4.01,2.34 -3.45,2.57 -6.46,6.11 -2.06,2.44 -3.81,4.69 -5.62,6.91 -6.83,8.42 -30.38,34.67 -33.52,41.81z"/>
     <path class="fil1" d="M41.31 521.75c-0.18,-0.28 -0.45,-1.04 -0.56,-0.83l-1.18 -1.48c-0.16,-0.17 -0.45,-0.41 -0.63,-0.59 -16.18,-16.18 6.54,-28.74 20,-44.04l2.8 -4.01c-5.22,1.62 -3.49,1.14 -6.99,5.43 -2.14,2.63 -3.4,3.68 -5.59,5.86 -3.54,3.5 -8.03,7.55 -11.52,11.36 -13.72,14.95 -2.49,28.36 3.67,28.3z"/>
     <path class="fil1" d="M132.33 446.17c3.75,-1.02 23.02,-21.54 25.8,-24.36 3.65,-3.71 22.94,-21.33 24.67,-26.18 -5.31,3.01 -8.21,7.69 -13.41,12.32l-35.95 36.07c-1.04,1.5 -0.45,0.71 -1.11,2.15z"/>
     <path class="fil1" d="M42.43 521.39c1.95,3.05 -1.56,1.95 4.53,3.09 2.14,0.4 5.52,-0.68 5.57,-0.69 9.27,-3.01 38.93,-34.97 39.76,-37.39 -4.37,1.74 -7.11,5.92 -11.48,10.2 -17.56,17.2 -19.99,25.49 -38.38,24.79z"/>
     <path class="fil1" d="M113.54 202.89l-6.61 -6 23.29 -7.37c9.34,-2.46 5.79,-2.02 7.35,-4.36 -6.99,1.38 -13.06,4.58 -19.56,5.95 -6.98,1.47 -15.12,3.26 -17.51,7.78l13.04 4z"/>
     <path class="fil1" d="M396.21 179.56c2.92,-1.33 4.94,-4.99 5.74,-8.37 1.97,-8.28 -2.2,-15.26 -8.8,-19.16l-8.87 -2.01c-7.92,0.9 -1.68,-0.1 -3.65,1.48 8.15,0.84 14.14,1.17 17.63,8.09 5.05,10.07 -0.7,12.85 -2.05,19.97z"/>
     <path class="fil1" d="M308.16 264.03c3.18,-1.23 17.04,-13.99 20.96,-17.72l6.07 -7.8c-4.45,1.89 -9.42,7.37 -14.3,12.14 -4.31,4.22 -9.61,7.91 -12.73,13.38z"/>
     <path class="fil1" d="M92.29 486.4c4.1,-0.88 2.35,-0.29 4.88,-3.15 4.9,-5.56 22.25,-21.2 23.55,-25.53 -5.42,2.64 -10.92,9.91 -14.73,13.73l-13.7 14.95z"/>
     <path class="fil1" d="M336.26 237.49c4.26,-2.33 22.29,-19.7 24.09,-23.79 -5.38,2.67 -22.64,20.01 -24.09,23.79z"/>
     <path class="fil1" d="M184.44 394.16c4.67,-1.63 1.12,0.44 4.18,-2.44 3.85,-3.6 18.02,-18.08 18.66,-21.1 -4.47,2.3 -7.78,7.01 -11.64,10.94 -2.62,2.65 -3.51,3.61 -5.7,5.76l-5.5 6.84z"/>
     <path class="fil1" d="M229.98 455.76c2.77,-1.26 0.71,0.01 3.74,-1.85l16.22 -13.55c1.4,-1.7 0.32,-0.32 1.71,-2.73 -4.85,2.04 -19.63,14.72 -21.67,18.13z"/>
     <path class="fil1" d="M253.82 478.39c4.45,-1.47 1.66,-0.13 6.07,-3.98 4.45,-3.87 11.3,-8.52 13.54,-12.51 -2.7,1.27 -0.96,0.25 -2.85,1.43 -4.18,2.62 -15.05,11.48 -16.76,15.06z"/>
     <path class="fil1" d="M87.31 289.68c2.96,-1.7 1.63,-0.54 3.97,-3.31 1.31,-1.56 2.11,-2.53 3.73,-4.37 2.84,-3.22 5.22,-5.87 6.56,-9.4 -3.4,1.18 -5.78,5.47 -7.97,8.05 -1.14,1.36 -2.54,2.77 -3.96,4.23 -1.96,2.02 -2.75,0.85 -2.33,4.8z"/>
     <path class="fil1" d="M183.39 494.58c4.64,-2.08 14.32,-9.88 17.08,-14.63 -4.36,2.06 -6.56,4.56 -9.31,6.9 -1.59,1.36 -2.59,1.93 -4.57,3.5 -3.43,2.74 -1.71,0.28 -3.2,4.23z"/>
     <path class="fil1" d="M298.08 228.86c4.2,-1.44 9.86,-7.85 12.05,-11.94 -4.1,1.94 -4.3,3.11 -6.97,5.7 -2.06,2.01 -4.01,3.26 -5.08,6.24z"/>
     <path class="fil1" d="M227.5 500.05c6.49,-1.87 2.03,-2.83 8.19,-4.1 0.74,-0.89 1.04,-3.29 1.14,-3.55 -3.14,1.15 -3.25,1.3 -5.25,2.9 -0.68,0.55 -1.12,0.85 -1.79,1.56 -2.91,3.11 -0.69,0.54 -2.29,3.19z"/>
     <path class="fil1" d="M55.48 328.04c2.02,-1.19 1.03,-0.32 2.58,-1.67 0.85,-0.74 0.95,-0.96 1.69,-1.81 1.92,-2.2 2.18,-2.55 3.39,-5.86 -0.9,0.29 -2.64,0.38 -3.55,1.14 -1.24,6.16 -2.19,1.78 -4.11,8.2z"/>
     <path class="fil1" d="M360.49 527.97c5.87,-1.98 3.49,-2.58 7.27,-5.7l0.34 -4.58c-0.24,0.24 -0.57,0.54 -0.74,0.74l-6.87 9.54z"/>
     <path class="fil1" d="M386.24 188.79c4.02,-2.14 7.83,-5.43 9.97,-9.23 -3.88,1.02 -8.13,5.3 -9.97,9.23z"/>
     <path class="fil1" d="M61 372.15c3.97,-1.5 1.13,0.7 4.65,-3.84 1.86,-2.41 2.21,-2.53 3.37,-5.63 -3.96,2.34 -6.26,5.54 -8.02,9.47z"/>
     <path class="fil1" d="M252.86 436.62c2.83,-1.03 2.72,-0.76 4.75,-2.23 3.52,-2.56 1.83,-1.32 3.25,-4.34 -3.6,1.42 -5.61,2.96 -8,6.57z"/>
    </g>
    <g>
     <path class="fil1" d="M356.29 448.82c-0.38,6.11 -1.71,6.88 -3.31,12.28 -3.21,-1.9 -3.67,-2.51 -4.84,-6.52 -3.66,-12.46 -16.94,-49.02 -17.68,-55.58 -3.48,-6.96 -6.27,-21.24 -9.53,-29.54l-24.8 -74.85c-1.81,-5.88 -5,-12.48 -4.28,-14.8l16.31 -15.78c3.12,-5.47 8.42,-9.16 12.73,-13.38 4.88,-4.77 9.85,-10.25 14.3,-12.14 0.5,-1.78 -0.9,-0.49 1.07,-1.02 1.45,-3.78 18.71,-21.12 24.09,-23.79 2.3,-1.84 4.25,-4.48 6.31,-6.51 2.7,-2.67 3.7,-3.62 6.39,-6.18 3.83,-3.66 8.88,-9.73 13.19,-12.22 1.84,-3.93 6.09,-8.21 9.97,-9.23 1.35,-7.12 7.1,-9.9 2.05,-19.97 -3.49,-6.92 -9.48,-7.25 -17.63,-8.09 -0.92,2.03 0.99,0.66 -2.68,2.97 -10.7,6.72 -14.47,15.04 -21.73,18.2 -4.41,5.61 -24.99,22.62 -28.08,28.05 -2.64,3.4 -2.23,3.44 -6,5.31 -1.09,1.54 -10.62,10.25 -12.01,10.89 -2.19,4.09 -7.85,10.5 -12.05,11.94 -0.6,2.39 1.86,0.68 -4.94,6.57 -2.33,2.01 -3.79,3.44 -5.99,5.5 -3.06,2.85 -8.76,9.53 -12.54,11.43 -4.1,3.36 -4.46,4.88 -11.29,3.43 -3.12,-0.65 -7.11,-2.57 -11.17,-3.91 -6.18,-2.04 -16.55,-6.25 -22.3,-7.53 -1.33,-0.24 -23.34,-6.73 -24,-8.53 -0.18,-0.52 -0.62,-0.49 -0.93,-0.73l-69.1 -24.63c-3.74,-1.31 -8.44,-2.52 -12.18,-3.98 -3.13,-1.22 -6.99,-2.93 -10.1,-3.59l-13.04 -4c2.39,-4.52 10.53,-6.31 17.51,-7.78 6.5,-1.37 12.57,-4.57 19.56,-5.95 6.51,-0.03 33.02,-9.75 41.63,-12.17l20.12 -6.89c17.77,-4.31 47.39,-13.71 63.28,-19.27l166.8 -50.79c5.88,-2.16 37.22,-11.97 42.13,-12.1 -0.55,9.77 -11.27,35.37 -14.14,47.22 -3.52,14.6 -9.89,29.72 -14.52,44.54 -8.46,27.08 -22.16,67.71 -28.47,92.26l-58.11 180.86zm-107.94 -165.13c3.88,0.15 9.92,2.31 12.07,4.57 2.53,2.66 3,8.08 4.79,12.56 -0.1,3.65 7.61,23.99 9.41,30.09 3.17,10.75 6.79,21.09 10.25,31.24l30.63 91.61c7.21,18.46 13.77,45.08 20.48,62.11 7.68,19.5 17.57,12.86 24.51,12.1l6.87 -9.54c0.17,-0.2 0.5,-0.5 0.74,-0.74 0.3,-5.54 28.32,-90.52 29.38,-93.2 2.37,-6.01 3.48,-13.13 5.54,-18.67 2.21,-5.93 4.12,-11.44 6.04,-17.74l52.73 -165.76c4.54,-11.99 6.95,-25.73 11.58,-37.69 10.44,-26.94 25.95,-81.12 35.54,-110.92 1.86,-5.76 5.46,-12.93 3.62,-19.2 -7.27,-24.78 -38.56,-2.83 -68.66,3.55l-129.85 40.25c-5.95,2.24 -13.79,3.73 -19.78,5.71 -16.88,5.57 -50.72,14.91 -64.03,20.34l-47.06 13.84c-5.94,1.99 -11.73,3.59 -18.09,5.81 -23.64,8.25 -55.37,15.9 -74.3,22.93 -16.65,6.19 -48.14,11.78 -54.62,19.63 -3.91,4.74 -4.4,13.38 -0.62,18.97 4.92,7.3 23.56,11.52 33.75,15.29l179.08 62.86z"/>
     <path class="fil1" d="M185.24 349.06l-0.3 -0.77c-3.12,4.95 -46.59,46.87 -56.07,56.85 -7.32,7.71 -51.12,52.1 -56.7,55.19l-10.43 10.47 -2.8 4.01c-13.46,15.3 -36.18,27.86 -20,44.04 0.18,0.18 0.47,0.42 0.63,0.59l1.18 1.48c0.11,-0.21 0.38,0.55 0.56,0.83l1.12 -0.36c18.39,0.7 20.82,-7.59 38.38,-24.79 4.37,-4.28 7.11,-8.46 11.48,-10.2l13.7 -14.95c3.81,-3.82 9.31,-11.09 14.73,-13.73 0.86,-2.6 -0.37,-0.33 1.04,-2.51 0.82,-1.29 6.92,-7.9 10.57,-9.04 0.66,-1.44 0.07,-0.65 1.11,-2.15l35.95 -36.07c5.2,-4.63 8.1,-9.31 13.41,-12.32l1.64 -1.47 5.5 -6.84c2.19,-2.15 3.08,-3.11 5.7,-5.76 3.86,-3.93 7.17,-8.64 11.64,-10.94l-0.8 -0.32c1.11,-5.16 3.45,-5.67 1.66,-11.51 -0.37,-1.21 -3.21,-6.09 -4.23,-7.16 -7.08,-7.37 -11.39,-4.16 -18.67,-2.57z"/>
     <path class="fil1" d="M260.86 430.05c-1.42,3.02 0.27,1.78 -3.25,4.34 -2.03,1.47 -1.92,1.2 -4.75,2.23 -0.95,1.98 1.14,0.14 -1.21,1.01 -1.39,2.41 -0.31,1.03 -1.71,2.73l-16.22 13.55c-3.03,1.86 -0.97,0.59 -3.74,1.85 -2.06,2.48 -26.5,23.15 -29.51,24.19 -2.76,4.75 -12.44,12.55 -17.08,14.63 -2.97,3.9 -6.62,8.46 -5.03,16.12 1.13,5.43 4.71,9.29 9.58,11.2 12.49,4.88 18.97,-7.52 26.84,-11.49 1.33,-3.02 0.31,-1.5 2.21,-3.49 0.75,-0.78 0.77,-0.59 1.91,-1.45 1.91,-1.44 2.1,-1.75 5.11,-2.85 0.98,-1 2.54,-2.04 3.49,-2.57 1.6,-2.65 -0.62,-0.08 2.29,-3.19 0.67,-0.71 1.11,-1.01 1.79,-1.56 2,-1.6 2.11,-1.75 5.25,-2.9 0.93,-1.8 15.6,-13.6 16.99,-14.01 1.71,-3.58 12.58,-12.44 16.76,-15.06 1.89,-1.18 0.15,-0.16 2.85,-1.43 6.08,-6.8 18.93,-11.87 14.18,-25.8 -6.4,-18.73 -26.74,-6.05 -26.75,-6.05z"/>
     <path class="fil1" d="M106.09 269.17c-0.75,1.42 1.09,0.43 -1.91,2.64 -2.18,1.6 0.09,0.63 -2.61,0.79 -1.34,3.53 -3.72,6.18 -6.56,9.4 -1.62,1.84 -2.42,2.81 -3.73,4.37 -2.34,2.77 -1.01,1.61 -3.97,3.31l-4.86 6.33c-1.24,3.48 0.72,0.85 -2.24,4.42 -1.23,1.48 -1.84,1.73 -3.75,3.03 -1.49,1.71 -11.79,14.45 -13.32,15.24 -1.21,3.31 -1.47,3.66 -3.39,5.86 -0.74,0.85 -0.84,1.07 -1.69,1.81 -1.55,1.35 -0.56,0.48 -2.58,1.67 -4.7,8.45 -20.08,21.46 -22.03,29.87 -2.04,8.74 1.53,15.08 7.88,18.02 8.66,4.02 14.19,0.24 19.67,-3.78 1.76,-3.93 4.06,-7.13 8.02,-9.47l3.28 -3.97c3.14,-7.14 26.69,-33.39 33.52,-41.81 1.81,-2.22 3.56,-4.47 5.62,-6.91 3.01,-3.54 2.45,-3.77 6.46,-6.11l0.81 -1.78c2.9,-7.16 13.04,-12.77 9.39,-23.61 -1.77,-5.26 -3.24,-6.91 -7.83,-9.08 -5.02,-2.38 -9.45,-0.46 -14.18,-0.24z"/>
    </g>
   </g>
   <g>
    <g>
     <path class="fil1" d="M102.12 255.28c4.73,-0.22 9.16,-2.14 14.18,0.24 4.59,2.17 6.06,3.82 7.83,9.08 3.65,10.84 -6.49,16.45 -9.39,23.61 6.04,-3 15.15,-15.62 11.13,-25.14 -4.27,-10.1 -21.76,-15.47 -23.75,-7.79z"/>
     <path class="fil1" d="M181.27 335.17c7.28,-1.59 11.59,-4.8 18.67,2.57 1.02,1.07 3.86,5.95 4.23,7.16 1.79,5.84 -0.55,6.35 -1.66,11.51 1.12,-0.72 2.61,-0.43 3.65,-4.64 1.39,-5.59 -1.13,-11.7 -4.84,-15.42 -3.66,-3.67 -10.73,-6.68 -16.47,-4.56 -3.48,1.29 -2.5,1.31 -3.58,3.38z"/>
     <path class="fil1" d="M270.64 238.47c3.78,-1.9 9.48,-8.58 12.54,-11.43 2.2,-2.06 3.66,-3.49 5.99,-5.5 6.8,-5.89 4.34,-4.18 4.94,-6.57 -4.57,2.25 -12.89,11.79 -18.06,16.37 -4.84,4.29 -3.49,2.84 -5.41,7.13z"/>
     <path class="fil1" d="M352.25 158.78c7.26,-3.16 11.03,-11.48 21.73,-18.2 3.67,-2.31 1.76,-0.94 2.68,-2.97 -5.15,0.67 -21.24,15.11 -24.41,21.17z"/>
     <path class="fil1" d="M225.88 230.46c-2.8,-3.52 -6.39,-3.97 -11.52,-5.66 -5.02,-1.65 -7.82,-3.28 -13.41,-3.6 0.31,0.24 0.75,0.21 0.93,0.73 0.66,1.8 22.67,8.29 24,8.53z"/>
     <path class="fil1" d="M261.24 286.93c-1.79,-4.48 -2.26,-9.9 -4.79,-12.56 -2.15,-2.26 -8.19,-4.42 -12.07,-4.57 1.64,1.83 -0.98,0.29 2.84,2.41 4.55,2.53 7.11,-0.63 10.34,8.94 2.8,8.27 0.35,3.78 3.68,5.78z"/>
     <path class="fil1" d="M116.75 443.83c3.39,-1.74 9.72,-7.98 11.61,-11.55 -3.65,1.14 -9.75,7.75 -10.57,9.04 -1.41,2.18 -0.18,-0.09 -1.04,2.51z"/>
     <path class="fil1" d="M210.81 496.52c2.47,-1.09 3.63,-1.97 5.49,-3.55 0.33,-0.28 1.79,-1.53 1.91,-1.66 1.82,-1.92 0.15,0.08 1.83,-2.58 -3.01,1.1 -3.2,1.41 -5.11,2.85 -1.14,0.86 -1.16,0.67 -1.91,1.45 -1.9,1.99 -0.88,0.47 -2.21,3.49z"/>
     <path class="fil1" d="M72.49 289.57c1.91,-1.3 2.52,-1.55 3.75,-3.03 2.96,-3.57 1,-0.94 2.24,-4.42 -2.48,1.49 -2.03,0.79 -3.8,2.87 -3.13,3.68 -1,0.73 -2.19,4.58z"/>
     <path class="fil1" d="M318.17 192.14c3.77,-1.87 3.36,-1.91 6,-5.31 -2.53,0.5 -2.56,0.55 -3.91,1.81 -3.9,3.61 0.05,-0.68 -2.09,3.5z"/>
     <path class="fil1" d="M97.6 258.71c2.7,-0.16 0.43,0.81 2.61,-0.79 3,-2.21 1.16,-1.22 1.91,-2.64l-3.62 0.95 -0.9 2.48z"/>
    </g>
    <g>
     <path class="fil1" d="M68.2 446.44c5.58,-3.09 49.38,-47.48 56.7,-55.19 9.48,-9.98 52.95,-51.9 56.07,-56.85 -4.13,1.18 -0.94,-0.3 -3.72,1.68l-68.04 68.06c-5.21,5.04 -9.07,9.09 -13.72,13.75 -4.66,4.68 -24.81,22.99 -27.29,28.55z"/>
     <path class="fil1" d="M352.32 434.93l-1.28 1.51c-0.15,0.19 -0.36,0.49 -0.53,0.71l-3.67 4.46 -17.48 -53.4c-1.02,-1.76 -1.79,-2.08 -2.87,-3.1 0.74,6.56 14.02,43.12 17.68,55.58 1.17,4.01 1.63,4.62 4.84,6.52 1.6,-5.4 2.93,-6.17 3.31,-12.28z"/>
     <path class="fil1" d="M68.33 344.82c4.15,-2.1 1.02,0.4 4.34,-3.51 8.12,-9.58 39.61,-47.2 41.26,-51.32 -4.01,2.34 -3.45,2.57 -6.46,6.11 -2.06,2.44 -3.81,4.69 -5.62,6.91 -6.83,8.42 -30.38,34.67 -33.52,41.81z"/>
     <path class="fil1" d="M37.34 507.86c-0.18,-0.28 -0.45,-1.04 -0.56,-0.83l-1.18 -1.48c-0.16,-0.17 -0.45,-0.41 -0.63,-0.59 -16.18,-16.18 6.54,-28.74 20,-44.04l2.8 -4.01c-5.22,1.62 -3.49,1.14 -6.99,5.43 -2.14,2.63 -3.4,3.68 -5.59,5.86 -3.54,3.5 -8.03,7.55 -11.52,11.36 -13.72,14.95 -2.49,28.36 3.67,28.3z"/>
     <path class="fil1" d="M128.36 432.28c3.75,-1.02 23.02,-21.54 25.8,-24.36 3.65,-3.71 22.94,-21.33 24.67,-26.18 -5.31,3.01 -8.21,7.69 -13.41,12.32l-35.95 36.07c-1.04,1.5 -0.45,0.71 -1.11,2.15z"/>
     <path class="fil1" d="M38.46 507.5c1.95,3.05 -1.56,1.95 4.53,3.09 2.14,0.4 5.52,-0.68 5.57,-0.69 9.27,-3.01 38.93,-34.97 39.76,-37.39 -4.37,1.74 -7.11,5.92 -11.48,10.2 -17.56,17.2 -19.99,25.49 -38.38,24.79z"/>
     <path class="fil1" d="M109.57 189l-6.61 -6 23.29 -7.37c9.34,-2.46 5.79,-2.02 7.35,-4.36 -6.99,1.38 -13.06,4.58 -19.56,5.95 -6.98,1.47 -15.12,3.26 -17.51,7.78l13.04 4z"/>
     <path class="fil1" d="M392.24 165.67c2.92,-1.33 4.94,-4.99 5.74,-8.37 1.97,-8.28 -2.2,-15.26 -8.8,-19.16l-8.87 -2.01c-7.92,0.9 -1.68,-0.1 -3.65,1.48 8.15,0.84 14.14,1.17 17.63,8.09 5.05,10.07 -0.7,12.85 -2.05,19.97z"/>
     <path class="fil1" d="M304.19 250.14c3.18,-1.23 17.04,-13.99 20.96,-17.72l6.07 -7.8c-4.45,1.89 -9.42,7.37 -14.3,12.14 -4.31,4.22 -9.61,7.91 -12.73,13.38z"/>
     <path class="fil1" d="M88.32 472.51c4.1,-0.88 2.35,-0.29 4.88,-3.15 4.9,-5.56 22.25,-21.2 23.55,-25.53 -5.42,2.64 -10.92,9.91 -14.73,13.73l-13.7 14.95z"/>
     <path class="fil1" d="M332.29 223.6c4.26,-2.33 22.29,-19.7 24.09,-23.79 -5.38,2.67 -22.64,20.01 -24.09,23.79z"/>
     <path class="fil1" d="M180.47 380.27c4.67,-1.63 1.12,0.44 4.18,-2.44 3.85,-3.6 18.02,-18.08 18.66,-21.1 -4.47,2.3 -7.78,7.01 -11.64,10.94 -2.62,2.65 -3.51,3.61 -5.7,5.76l-5.5 6.84z"/>
     <path class="fil1" d="M226.01 441.87c2.77,-1.26 0.71,0.01 3.74,-1.85l16.22 -13.55c1.4,-1.7 0.32,-0.32 1.71,-2.73 -4.85,2.04 -19.63,14.72 -21.67,18.13z"/>
     <path class="fil1" d="M249.85 464.5c4.45,-1.47 1.66,-0.13 6.07,-3.98 4.45,-3.87 11.3,-8.52 13.54,-12.51 -2.7,1.27 -0.96,0.25 -2.85,1.43 -4.18,2.62 -15.05,11.48 -16.76,15.06z"/>
     <path class="fil1" d="M83.34 275.79c2.96,-1.7 1.63,-0.54 3.97,-3.31 1.31,-1.56 2.11,-2.53 3.73,-4.37 2.84,-3.22 5.22,-5.87 6.56,-9.4 -3.4,1.18 -5.78,5.47 -7.97,8.05 -1.14,1.36 -2.54,2.77 -3.96,4.23 -1.96,2.02 -2.75,0.85 -2.33,4.8z"/>
     <path class="fil1" d="M179.42 480.69c4.64,-2.08 14.32,-9.88 17.08,-14.63 -4.36,2.06 -6.56,4.56 -9.31,6.9 -1.59,1.36 -2.59,1.93 -4.57,3.5 -3.43,2.74 -1.71,0.28 -3.2,4.23z"/>
     <path class="fil1" d="M294.11 214.97c4.2,-1.44 9.86,-7.85 12.05,-11.94 -4.1,1.94 -4.3,3.11 -6.97,5.7 -2.06,2.01 -4.01,3.26 -5.08,6.24z"/>
     <path class="fil1" d="M223.53 486.16c6.49,-1.87 2.03,-2.83 8.19,-4.1 0.74,-0.89 1.04,-3.29 1.14,-3.55 -3.14,1.15 -3.25,1.3 -5.25,2.9 -0.68,0.55 -1.12,0.85 -1.79,1.56 -2.91,3.11 -0.69,0.54 -2.29,3.19z"/>
     <path class="fil1" d="M51.51 314.15c2.02,-1.19 1.03,-0.32 2.58,-1.67 0.85,-0.74 0.95,-0.96 1.69,-1.81 1.92,-2.2 2.18,-2.55 3.39,-5.86 -0.9,0.29 -2.64,0.38 -3.55,1.14 -1.24,6.16 -2.19,1.78 -4.11,8.2z"/>
     <path class="fil1" d="M356.52 514.08c5.87,-1.98 3.49,-2.58 7.27,-5.7l0.34 -4.58c-0.24,0.24 -0.57,0.54 -0.74,0.74l-6.87 9.54z"/>
     <path class="fil1" d="M382.27 174.9c4.02,-2.14 7.83,-5.43 9.97,-9.23 -3.88,1.02 -8.13,5.3 -9.97,9.23z"/>
     <path class="fil1" d="M57.03 358.26c3.97,-1.5 1.13,0.7 4.65,-3.84 1.86,-2.41 2.21,-2.53 3.37,-5.63 -3.96,2.34 -6.26,5.54 -8.02,9.47z"/>
     <path class="fil1" d="M248.89 422.73c2.83,-1.03 2.72,-0.76 4.75,-2.23 3.52,-2.56 1.83,-1.32 3.25,-4.34 -3.6,1.42 -5.61,2.96 -8,6.57z"/>
    </g>
    <g>
     <path class="fil1" d="M352.32 434.93c-0.38,6.11 -1.71,6.88 -3.31,12.28 -3.21,-1.9 -3.67,-2.51 -4.84,-6.52 -3.66,-12.46 -16.94,-49.02 -17.68,-55.58 -3.48,-6.96 -6.27,-21.24 -9.53,-29.54l-24.8 -74.85c-1.81,-5.88 -5,-12.48 -4.28,-14.8l16.31 -15.78c3.12,-5.47 8.42,-9.16 12.73,-13.38 4.88,-4.77 9.85,-10.25 14.3,-12.14 0.5,-1.78 -0.9,-0.49 1.07,-1.02 1.45,-3.78 18.71,-21.12 24.09,-23.79 2.3,-1.84 4.25,-4.48 6.31,-6.51 2.7,-2.67 3.7,-3.62 6.39,-6.18 3.83,-3.66 8.88,-9.73 13.19,-12.22 1.84,-3.93 6.09,-8.21 9.97,-9.23 1.35,-7.12 7.1,-9.9 2.05,-19.97 -3.49,-6.92 -9.48,-7.25 -17.63,-8.09 -0.92,2.03 0.99,0.66 -2.68,2.97 -10.7,6.72 -14.47,15.04 -21.73,18.2 -4.41,5.61 -24.99,22.62 -28.08,28.05 -2.64,3.4 -2.23,3.44 -6,5.31 -1.09,1.54 -10.62,10.25 -12.01,10.89 -2.19,4.09 -7.85,10.5 -12.05,11.94 -0.6,2.39 1.86,0.68 -4.94,6.57 -2.33,2.01 -3.79,3.44 -5.99,5.5 -3.06,2.85 -8.76,9.53 -12.54,11.43 -4.1,3.36 -4.46,4.88 -11.29,3.43 -3.12,-0.65 -7.11,-2.57 -11.17,-3.91 -6.18,-2.04 -16.55,-6.25 -22.3,-7.53 -1.33,-0.24 -23.34,-6.73 -24,-8.53 -0.18,-0.52 -0.62,-0.49 -0.93,-0.73l-69.1 -24.63c-3.74,-1.31 -8.44,-2.52 -12.18,-3.98 -3.13,-1.22 -6.99,-2.93 -10.1,-3.59l-13.04 -4c2.39,-4.52 10.53,-6.31 17.51,-7.78 6.5,-1.37 12.57,-4.57 19.56,-5.95 6.51,-0.03 33.02,-9.75 41.63,-12.17l20.12 -6.89c17.77,-4.31 47.39,-13.71 63.28,-19.27l166.8 -50.79c5.88,-2.16 37.22,-11.97 42.13,-12.1 -0.55,9.77 -11.27,35.37 -14.14,47.22 -3.52,14.6 -9.89,29.72 -14.52,44.54 -8.46,27.08 -22.16,67.71 -28.47,92.26l-58.11 180.86zm-107.94 -165.13c3.88,0.15 9.92,2.31 12.07,4.57 2.53,2.66 3,8.08 4.79,12.56 -0.1,3.65 7.61,23.99 9.41,30.09 3.17,10.75 6.79,21.09 10.25,31.24l30.63 91.61c7.21,18.46 13.77,45.08 20.48,62.11 7.68,19.5 17.57,12.86 24.51,12.1l6.87 -9.54c0.17,-0.2 0.5,-0.5 0.74,-0.74 0.3,-5.54 28.32,-90.52 29.38,-93.2 2.37,-6.01 3.48,-13.13 5.54,-18.67 2.21,-5.93 4.12,-11.44 6.04,-17.74l52.73 -165.76c4.54,-11.99 6.95,-25.73 11.58,-37.69 10.44,-26.94 25.95,-81.12 35.54,-110.92 1.86,-5.76 5.46,-12.93 3.62,-19.2 -7.27,-24.78 -38.56,-2.83 -68.66,3.55l-129.85 40.25c-5.95,2.24 -13.79,3.73 -19.78,5.71 -16.88,5.57 -50.72,14.91 -64.03,20.34l-47.06 13.84c-5.94,1.99 -11.73,3.59 -18.09,5.81 -23.64,8.25 -55.37,15.9 -74.3,22.93 -16.65,6.19 -48.14,11.78 -54.62,19.63 -3.91,4.74 -4.4,13.38 -0.62,18.97 4.92,7.3 23.56,11.52 33.75,15.29l179.08 62.86z"/>
     <path class="fil1" d="M181.27 335.17l-0.3 -0.77c-3.12,4.95 -46.59,46.87 -56.07,56.85 -7.32,7.71 -51.12,52.1 -56.7,55.19l-10.43 10.47 -2.8 4.01c-13.46,15.3 -36.18,27.86 -20,44.04 0.18,0.18 0.47,0.42 0.63,0.59l1.18 1.48c0.11,-0.21 0.38,0.55 0.56,0.83l1.12 -0.36c18.39,0.7 20.82,-7.59 38.38,-24.79 4.37,-4.28 7.11,-8.46 11.48,-10.2l13.7 -14.95c3.81,-3.82 9.31,-11.09 14.73,-13.73 0.86,-2.6 -0.37,-0.33 1.04,-2.51 0.82,-1.29 6.92,-7.9 10.57,-9.04 0.66,-1.44 0.07,-0.65 1.11,-2.15l35.95 -36.07c5.2,-4.63 8.1,-9.31 13.41,-12.32l1.64 -1.47 5.5 -6.84c2.19,-2.15 3.08,-3.11 5.7,-5.76 3.86,-3.93 7.17,-8.64 11.64,-10.94l-0.8 -0.32c1.11,-5.16 3.45,-5.67 1.66,-11.51 -0.37,-1.21 -3.21,-6.09 -4.23,-7.16 -7.08,-7.37 -11.39,-4.16 -18.67,-2.57z"/>
     <path class="fil1" d="M256.89 416.16c-1.42,3.02 0.27,1.78 -3.25,4.34 -2.03,1.47 -1.92,1.2 -4.75,2.23 -0.95,1.98 1.14,0.14 -1.21,1.01 -1.39,2.41 -0.31,1.03 -1.71,2.73l-16.22 13.55c-3.03,1.86 -0.97,0.59 -3.74,1.85 -2.06,2.48 -26.5,23.15 -29.51,24.19 -2.76,4.75 -12.44,12.55 -17.08,14.63 -2.97,3.9 -6.62,8.46 -5.03,16.12 1.13,5.43 4.71,9.29 9.58,11.2 12.49,4.88 18.97,-7.52 26.84,-11.49 1.33,-3.02 0.31,-1.5 2.21,-3.49 0.75,-0.78 0.77,-0.59 1.91,-1.45 1.91,-1.44 2.1,-1.75 5.11,-2.85 0.98,-1 2.54,-2.04 3.49,-2.57 1.6,-2.65 -0.62,-0.08 2.29,-3.19 0.67,-0.71 1.11,-1.01 1.79,-1.56 2,-1.6 2.11,-1.75 5.25,-2.9 0.93,-1.8 15.6,-13.6 16.99,-14.01 1.71,-3.58 12.58,-12.44 16.76,-15.06 1.89,-1.18 0.15,-0.16 2.85,-1.43 6.08,-6.8 18.93,-11.87 14.18,-25.8 -6.4,-18.73 -26.74,-6.05 -26.75,-6.05z"/>
     <path class="fil1" d="M102.12 255.28c-0.75,1.42 1.09,0.43 -1.91,2.64 -2.18,1.6 0.09,0.63 -2.61,0.79 -1.34,3.53 -3.72,6.18 -6.56,9.4 -1.62,1.84 -2.42,2.81 -3.73,4.37 -2.34,2.77 -1.01,1.61 -3.97,3.31l-4.86 6.33c-1.24,3.48 0.72,0.85 -2.24,4.42 -1.23,1.48 -1.84,1.73 -3.75,3.03 -1.49,1.71 -11.79,14.45 -13.32,15.24 -1.21,3.31 -1.47,3.66 -3.39,5.86 -0.74,0.85 -0.84,1.07 -1.69,1.81 -1.55,1.35 -0.56,0.48 -2.58,1.67 -4.7,8.45 -20.08,21.46 -22.03,29.87 -2.04,8.74 1.53,15.08 7.88,18.02 8.66,4.02 14.19,0.24 19.67,-3.78 1.76,-3.93 4.06,-7.13 8.02,-9.47l3.28 -3.97c3.14,-7.14 26.69,-33.39 33.52,-41.81 1.81,-2.22 3.56,-4.47 5.62,-6.91 3.01,-3.54 2.45,-3.77 6.46,-6.11l0.81 -1.78c2.9,-7.16 13.04,-12.77 9.39,-23.61 -1.77,-5.26 -3.24,-6.91 -7.83,-9.08 -5.02,-2.38 -9.45,-0.46 -14.18,-0.24z"/>
    </g>
   </g>
   <g>
    <g>
     <path class="fil2" d="M124.68 269.03c4.73,-0.22 9.16,-2.14 14.18,0.24 4.59,2.17 6.06,3.82 7.83,9.08 3.65,10.84 -6.49,16.45 -9.39,23.61 6.04,-3 15.15,-15.62 11.13,-25.14 -4.27,-10.1 -21.76,-15.47 -23.75,-7.79z"/>
     <path class="fil2" d="M203.83 348.92c7.28,-1.59 11.59,-4.8 18.67,2.57 1.02,1.07 3.86,5.95 4.23,7.16 1.79,5.84 -0.55,6.35 -1.66,11.51 1.12,-0.72 2.61,-0.43 3.65,-4.64 1.39,-5.59 -1.13,-11.7 -4.84,-15.42 -3.66,-3.67 -10.73,-6.68 -16.47,-4.56 -3.48,1.29 -2.5,1.31 -3.58,3.38z"/>
     <path class="fil2" d="M293.2 252.22c3.78,-1.9 9.48,-8.58 12.54,-11.43 2.2,-2.06 3.66,-3.49 5.99,-5.5 6.8,-5.89 4.34,-4.18 4.94,-6.57 -4.57,2.25 -12.89,11.79 -18.06,16.37 -4.84,4.29 -3.49,2.84 -5.41,7.13z"/>
     <path class="fil2" d="M374.81 172.53c7.26,-3.16 11.03,-11.48 21.73,-18.2 3.67,-2.31 1.76,-0.94 2.68,-2.97 -5.15,0.67 -21.24,15.11 -24.41,21.17z"/>
     <path class="fil2" d="M248.44 244.21c-2.8,-3.52 -6.39,-3.97 -11.52,-5.66 -5.02,-1.65 -7.82,-3.28 -13.41,-3.6 0.31,0.24 0.75,0.21 0.93,0.73 0.66,1.8 22.67,8.29 24,8.53z"/>
     <path class="fil2" d="M283.8 300.68c-1.79,-4.48 -2.26,-9.9 -4.79,-12.56 -2.15,-2.26 -8.19,-4.42 -12.07,-4.57 1.64,1.83 -0.98,0.29 2.84,2.41 4.55,2.53 7.11,-0.63 10.34,8.94 2.8,8.27 0.35,3.78 3.68,5.78z"/>
     <path class="fil2" d="M139.31 457.58c3.39,-1.74 9.72,-7.98 11.61,-11.55 -3.65,1.14 -9.75,7.75 -10.57,9.04 -1.41,2.18 -0.18,-0.09 -1.04,2.51z"/>
     <path class="fil2" d="M233.37 510.27c2.47,-1.09 3.63,-1.97 5.49,-3.55 0.33,-0.28 1.79,-1.53 1.91,-1.66 1.82,-1.92 0.15,0.08 1.83,-2.58 -3.01,1.1 -3.2,1.41 -5.11,2.85 -1.14,0.86 -1.16,0.67 -1.91,1.45 -1.9,1.99 -0.88,0.47 -2.21,3.49z"/>
     <path class="fil2" d="M95.05 303.32c1.91,-1.3 2.52,-1.55 3.75,-3.03 2.96,-3.57 1,-0.94 2.24,-4.42 -2.48,1.49 -2.03,0.79 -3.8,2.87 -3.13,3.68 -1,0.73 -2.19,4.58z"/>
     <path class="fil2" d="M340.73 205.89c3.77,-1.87 3.36,-1.91 6,-5.31 -2.53,0.5 -2.56,0.55 -3.91,1.81 -3.9,3.61 0.05,-0.68 -2.09,3.5z"/>
     <path class="fil2" d="M120.16 272.46c2.7,-0.16 0.43,0.81 2.61,-0.79 3,-2.21 1.16,-1.22 1.91,-2.64l-3.62 0.95 -0.9 2.48z"/>
    </g>
    <g>
     <path class="fil2" d="M90.76 460.19c5.58,-3.09 49.38,-47.48 56.7,-55.19 9.48,-9.98 52.95,-51.9 56.07,-56.85 -4.13,1.18 -0.94,-0.3 -3.72,1.68l-68.04 68.06c-5.21,5.04 -9.07,9.09 -13.72,13.75 -4.66,4.68 -24.81,22.99 -27.29,28.55z"/>
     <path class="fil2" d="M374.88 448.68l-1.28 1.51c-0.15,0.19 -0.36,0.49 -0.53,0.71l-3.67 4.46 -17.48 -53.4c-1.02,-1.76 -1.79,-2.08 -2.87,-3.1 0.74,6.56 14.02,43.12 17.68,55.58 1.17,4.01 1.63,4.62 4.84,6.52 1.6,-5.4 2.93,-6.17 3.31,-12.28z"/>
     <path class="fil2" d="M90.89 358.57c4.15,-2.1 1.02,0.4 4.34,-3.51 8.12,-9.58 39.61,-47.2 41.26,-51.32 -4.01,2.34 -3.45,2.57 -6.46,6.11 -2.06,2.44 -3.81,4.69 -5.62,6.91 -6.83,8.42 -30.38,34.67 -33.52,41.81z"/>
     <path class="fil2" d="M59.9 521.61c-0.18,-0.28 -0.45,-1.04 -0.56,-0.83l-1.18 -1.48c-0.16,-0.17 -0.45,-0.41 -0.63,-0.59 -16.18,-16.18 6.54,-28.74 20,-44.04l2.8 -4.01c-5.22,1.62 -3.49,1.14 -6.99,5.43 -2.14,2.63 -3.4,3.68 -5.59,5.86 -3.54,3.5 -8.03,7.55 -11.52,11.36 -13.72,14.95 -2.49,28.36 3.67,28.3z"/>
     <path class="fil2" d="M150.92 446.03c3.75,-1.02 23.02,-21.54 25.8,-24.36 3.65,-3.71 22.94,-21.33 24.67,-26.18 -5.31,3.01 -8.21,7.69 -13.41,12.32l-35.95 36.07c-1.04,1.5 -0.45,0.71 -1.11,2.15z"/>
     <path class="fil2" d="M61.02 521.25c1.95,3.05 -1.56,1.95 4.53,3.09 2.14,0.4 5.52,-0.68 5.57,-0.69 9.27,-3.01 38.93,-34.97 39.76,-37.39 -4.37,1.74 -7.11,5.92 -11.48,10.2 -17.56,17.2 -19.99,25.49 -38.38,24.79z"/>
     <path class="fil2" d="M132.13 202.75l-6.61 -6 23.29 -7.37c9.34,-2.46 5.79,-2.02 7.35,-4.36 -6.99,1.38 -13.06,4.58 -19.56,5.95 -6.98,1.47 -15.12,3.26 -17.51,7.78l13.04 4z"/>
     <path class="fil2" d="M414.8 179.42c2.92,-1.33 4.94,-4.99 5.74,-8.37 1.97,-8.28 -2.2,-15.26 -8.8,-19.16l-8.87 -2.01c-7.92,0.9 -1.68,-0.1 -3.65,1.48 8.15,0.84 14.14,1.17 17.63,8.09 5.05,10.07 -0.7,12.85 -2.05,19.97z"/>
     <path class="fil2" d="M326.75 263.89c3.18,-1.23 17.04,-13.99 20.96,-17.72l6.07 -7.8c-4.45,1.89 -9.42,7.37 -14.3,12.14 -4.31,4.22 -9.61,7.91 -12.73,13.38z"/>
     <path class="fil2" d="M110.88 486.26c4.1,-0.88 2.35,-0.29 4.88,-3.15 4.9,-5.56 22.25,-21.2 23.55,-25.53 -5.42,2.64 -10.92,9.91 -14.73,13.73l-13.7 14.95z"/>
     <path class="fil2" d="M354.85 237.35c4.26,-2.33 22.29,-19.7 24.09,-23.79 -5.38,2.67 -22.64,20.01 -24.09,23.79z"/>
     <path class="fil2" d="M203.03 394.02c4.67,-1.63 1.12,0.44 4.18,-2.44 3.85,-3.6 18.02,-18.08 18.66,-21.1 -4.47,2.3 -7.78,7.01 -11.64,10.94 -2.62,2.65 -3.51,3.61 -5.7,5.76l-5.5 6.84z"/>
     <path class="fil2" d="M248.57 455.62c2.77,-1.26 0.71,0.01 3.74,-1.85l16.22 -13.55c1.4,-1.7 0.32,-0.32 1.71,-2.73 -4.85,2.04 -19.63,14.72 -21.67,18.13z"/>
     <path class="fil2" d="M272.41 478.25c4.45,-1.47 1.66,-0.13 6.07,-3.98 4.45,-3.87 11.3,-8.52 13.54,-12.51 -2.7,1.27 -0.96,0.25 -2.85,1.43 -4.18,2.62 -15.05,11.48 -16.76,15.06z"/>
     <path class="fil2" d="M105.9 289.54c2.96,-1.7 1.63,-0.54 3.97,-3.31 1.31,-1.56 2.11,-2.53 3.73,-4.37 2.84,-3.22 5.22,-5.87 6.56,-9.4 -3.4,1.18 -5.78,5.47 -7.97,8.05 -1.14,1.36 -2.54,2.77 -3.96,4.23 -1.96,2.02 -2.75,0.85 -2.33,4.8z"/>
     <path class="fil2" d="M201.98 494.44c4.64,-2.08 14.32,-9.88 17.08,-14.63 -4.36,2.06 -6.56,4.56 -9.31,6.9 -1.59,1.36 -2.59,1.93 -4.57,3.5 -3.43,2.74 -1.71,0.28 -3.2,4.23z"/>
     <path class="fil2" d="M316.67 228.72c4.2,-1.44 9.86,-7.85 12.05,-11.94 -4.1,1.94 -4.3,3.11 -6.97,5.7 -2.06,2.01 -4.01,3.26 -5.08,6.24z"/>
     <path class="fil2" d="M246.09 499.91c6.49,-1.87 2.03,-2.83 8.19,-4.1 0.74,-0.89 1.04,-3.29 1.14,-3.55 -3.14,1.15 -3.25,1.3 -5.25,2.9 -0.68,0.55 -1.12,0.85 -1.79,1.56 -2.91,3.11 -0.69,0.54 -2.29,3.19z"/>
     <path class="fil2" d="M74.07 327.9c2.02,-1.19 1.03,-0.32 2.58,-1.67 0.85,-0.74 0.95,-0.96 1.69,-1.81 1.92,-2.2 2.18,-2.55 3.39,-5.86 -0.9,0.29 -2.64,0.38 -3.55,1.14 -1.24,6.16 -2.19,1.78 -4.11,8.2z"/>
     <path class="fil2" d="M379.08 527.83c5.87,-1.98 3.49,-2.58 7.27,-5.7l0.34 -4.58c-0.24,0.24 -0.57,0.54 -0.74,0.74l-6.87 9.54z"/>
     <path class="fil2" d="M404.83 188.65c4.02,-2.14 7.83,-5.43 9.97,-9.23 -3.88,1.02 -8.13,5.3 -9.97,9.23z"/>
     <path class="fil2" d="M79.59 372.01c3.97,-1.5 1.13,0.7 4.65,-3.84 1.86,-2.41 2.21,-2.53 3.37,-5.63 -3.96,2.34 -6.26,5.54 -8.02,9.47z"/>
     <path class="fil2" d="M271.45 436.48c2.83,-1.03 2.72,-0.76 4.75,-2.23 3.52,-2.56 1.83,-1.32 3.25,-4.34 -3.6,1.42 -5.61,2.96 -8,6.57z"/>
    </g>
    <g>
     <path class="fil2" d="M374.88 448.68c-0.38,6.11 -1.71,6.88 -3.31,12.28 -3.21,-1.9 -3.67,-2.51 -4.84,-6.52 -3.66,-12.46 -16.94,-49.02 -17.68,-55.58 -3.48,-6.96 -6.27,-21.24 -9.53,-29.54l-24.8 -74.85c-1.81,-5.88 -5,-12.48 -4.28,-14.8l16.31 -15.78c3.12,-5.47 8.42,-9.16 12.73,-13.38 4.88,-4.77 9.85,-10.25 14.3,-12.14 0.5,-1.78 -0.9,-0.49 1.07,-1.02 1.45,-3.78 18.71,-21.12 24.09,-23.79 2.3,-1.84 4.25,-4.48 6.31,-6.51 2.7,-2.67 3.7,-3.62 6.39,-6.18 3.83,-3.66 8.88,-9.73 13.19,-12.22 1.84,-3.93 6.09,-8.21 9.97,-9.23 1.35,-7.12 7.1,-9.9 2.05,-19.97 -3.49,-6.92 -9.48,-7.25 -17.63,-8.09 -0.92,2.03 0.99,0.66 -2.68,2.97 -10.7,6.72 -14.47,15.04 -21.73,18.2 -4.41,5.61 -24.99,22.62 -28.08,28.05 -2.64,3.4 -2.23,3.44 -6,5.31 -1.09,1.54 -10.62,10.25 -12.01,10.89 -2.19,4.09 -7.85,10.5 -12.05,11.94 -0.6,2.39 1.86,0.68 -4.94,6.57 -2.33,2.01 -3.79,3.44 -5.99,5.5 -3.06,2.85 -8.76,9.53 -12.54,11.43 -4.1,3.36 -4.46,4.88 -11.29,3.43 -3.12,-0.65 -7.11,-2.57 -11.17,-3.91 -6.18,-2.04 -16.55,-6.25 -22.3,-7.53 -1.33,-0.24 -23.34,-6.73 -24,-8.53 -0.18,-0.52 -0.62,-0.49 -0.93,-0.73l-69.1 -24.63c-3.74,-1.31 -8.44,-2.52 -12.18,-3.98 -3.13,-1.22 -6.99,-2.93 -10.1,-3.59l-13.04 -4c2.39,-4.52 10.53,-6.31 17.51,-7.78 6.5,-1.37 12.57,-4.57 19.56,-5.95 6.51,-0.03 33.02,-9.75 41.63,-12.17l20.12 -6.89c17.77,-4.31 47.39,-13.71 63.28,-19.27l166.8 -50.79c5.88,-2.16 37.22,-11.97 42.13,-12.1 -0.55,9.77 -11.27,35.37 -14.14,47.22 -3.52,14.6 -9.89,29.72 -14.52,44.54 -8.46,27.08 -22.16,67.71 -28.47,92.26l-58.11 180.86zm-107.94 -165.13c3.88,0.15 9.92,2.31 12.07,4.57 2.53,2.66 3,8.08 4.79,12.56 -0.1,3.65 7.61,23.99 9.41,30.09 3.17,10.75 6.79,21.09 10.25,31.24l30.63 91.61c7.21,18.46 13.77,45.08 20.48,62.11 7.68,19.5 17.57,12.86 24.51,12.1l6.87 -9.54c0.17,-0.2 0.5,-0.5 0.74,-0.74 0.3,-5.54 28.32,-90.52 29.38,-93.2 2.37,-6.01 3.48,-13.13 5.54,-18.67 2.21,-5.93 4.12,-11.44 6.04,-17.74l52.73 -165.76c4.54,-11.99 6.95,-25.73 11.58,-37.69 10.44,-26.94 25.95,-81.12 35.54,-110.92 1.86,-5.76 5.46,-12.93 3.62,-19.2 -7.27,-24.78 -38.56,-2.83 -68.66,3.55l-129.85 40.25c-5.95,2.24 -13.79,3.73 -19.78,5.71 -16.88,5.57 -50.72,14.91 -64.03,20.34l-47.06 13.84c-5.94,1.99 -11.73,3.59 -18.09,5.81 -23.64,8.25 -55.37,15.9 -74.3,22.93 -16.65,6.19 -48.14,11.78 -54.62,19.63 -3.91,4.74 -4.4,13.38 -0.62,18.97 4.92,7.3 23.56,11.52 33.75,15.29l179.08 62.86z"/>
     <path class="fil2" d="M203.83 348.92l-0.3 -0.77c-3.12,4.95 -46.59,46.87 -56.07,56.85 -7.32,7.71 -51.12,52.1 -56.7,55.19l-10.43 10.47 -2.8 4.01c-13.46,15.3 -36.18,27.86 -20,44.04 0.18,0.18 0.47,0.42 0.63,0.59l1.18 1.48c0.11,-0.21 0.38,0.55 0.56,0.83l1.12 -0.36c18.39,0.7 20.82,-7.59 38.38,-24.79 4.37,-4.28 7.11,-8.46 11.48,-10.2l13.7 -14.95c3.81,-3.82 9.31,-11.09 14.73,-13.73 0.86,-2.6 -0.37,-0.33 1.04,-2.51 0.82,-1.29 6.92,-7.9 10.57,-9.04 0.66,-1.44 0.07,-0.65 1.11,-2.15l35.95 -36.07c5.2,-4.63 8.1,-9.31 13.41,-12.32l1.64 -1.47 5.5 -6.84c2.19,-2.15 3.08,-3.11 5.7,-5.76 3.86,-3.93 7.17,-8.64 11.64,-10.94l-0.8 -0.32c1.11,-5.16 3.45,-5.67 1.66,-11.51 -0.37,-1.21 -3.21,-6.09 -4.23,-7.16 -7.08,-7.37 -11.39,-4.16 -18.67,-2.57z"/>
     <path class="fil2" d="M279.45 429.91c-1.42,3.02 0.27,1.78 -3.25,4.34 -2.03,1.47 -1.92,1.2 -4.75,2.23 -0.95,1.98 1.14,0.14 -1.21,1.01 -1.39,2.41 -0.31,1.03 -1.71,2.73l-16.22 13.55c-3.03,1.86 -0.97,0.59 -3.74,1.85 -2.06,2.48 -26.5,23.15 -29.51,24.19 -2.76,4.75 -12.44,12.55 -17.08,14.63 -2.97,3.9 -6.62,8.46 -5.03,16.12 1.13,5.43 4.71,9.29 9.58,11.2 12.49,4.88 18.97,-7.52 26.84,-11.49 1.33,-3.02 0.31,-1.5 2.21,-3.49 0.75,-0.78 0.77,-0.59 1.91,-1.45 1.91,-1.44 2.1,-1.75 5.11,-2.85 0.98,-1 2.54,-2.04 3.49,-2.57 1.6,-2.65 -0.62,-0.08 2.29,-3.19 0.67,-0.71 1.11,-1.01 1.79,-1.56 2,-1.6 2.11,-1.75 5.25,-2.9 0.93,-1.8 15.6,-13.6 16.99,-14.01 1.71,-3.58 12.58,-12.44 16.76,-15.06 1.89,-1.18 0.15,-0.16 2.85,-1.43 6.08,-6.8 18.93,-11.87 14.18,-25.8 -6.4,-18.73 -26.74,-6.05 -26.75,-6.05z"/>
     <path class="fil2" d="M124.68 269.03c-0.75,1.42 1.09,0.43 -1.91,2.64 -2.18,1.6 0.09,0.63 -2.61,0.79 -1.34,3.53 -3.72,6.18 -6.56,9.4 -1.62,1.84 -2.42,2.81 -3.73,4.37 -2.34,2.77 -1.01,1.61 -3.97,3.31l-4.86 6.33c-1.24,3.48 0.72,0.85 -2.24,4.42 -1.23,1.48 -1.84,1.73 -3.75,3.03 -1.49,1.71 -11.79,14.45 -13.32,15.24 -1.21,3.31 -1.47,3.66 -3.39,5.86 -0.74,0.85 -0.84,1.07 -1.69,1.81 -1.55,1.35 -0.56,0.48 -2.58,1.67 -4.7,8.45 -20.08,21.46 -22.03,29.87 -2.04,8.74 1.53,15.08 7.88,18.02 8.66,4.02 14.19,0.24 19.67,-3.78 1.76,-3.93 4.06,-7.13 8.02,-9.47l3.28 -3.97c3.14,-7.14 26.69,-33.39 33.52,-41.81 1.81,-2.22 3.56,-4.47 5.62,-6.91 3.01,-3.54 2.45,-3.77 6.46,-6.11l0.81 -1.78c2.9,-7.16 13.04,-12.77 9.39,-23.61 -1.77,-5.26 -3.24,-6.91 -7.83,-9.08 -5.02,-2.38 -9.45,-0.46 -14.18,-0.24z"/>
    </g>
   </g>
   <g>
    <g>
     <path class="fil3" d="M113.86 265.88c4.73,-0.22 9.16,-2.14 14.18,0.24 4.59,2.17 6.06,3.82 7.83,9.08 3.65,10.84 -6.49,16.45 -9.39,23.61 6.04,-3 15.15,-15.62 11.13,-25.14 -4.27,-10.1 -21.76,-15.47 -23.75,-7.79z"/>
     <path class="fil4" d="M193.01 345.77c7.28,-1.59 11.59,-4.8 18.67,2.57 1.02,1.07 3.86,5.95 4.23,7.16 1.79,5.84 -0.55,6.35 -1.66,11.51 1.12,-0.72 2.61,-0.43 3.65,-4.64 1.39,-5.59 -1.13,-11.7 -4.84,-15.42 -3.66,-3.67 -10.73,-6.68 -16.47,-4.56 -3.48,1.29 -2.5,1.31 -3.58,3.38z"/>
     <path class="fil5" d="M282.38 249.07c3.78,-1.9 9.48,-8.58 12.54,-11.43 2.2,-2.06 3.66,-3.49 5.99,-5.5 6.8,-5.89 4.34,-4.18 4.94,-6.57 -4.57,2.25 -12.89,11.79 -18.06,16.37 -4.84,4.29 -3.49,2.84 -5.41,7.13z"/>
     <path class="fil6" d="M363.99 169.38c7.26,-3.16 11.03,-11.48 21.73,-18.2 3.67,-2.31 1.76,-0.94 2.68,-2.97 -5.15,0.67 -21.24,15.11 -24.41,21.17z"/>
     <path class="fil7" d="M237.62 241.06c-2.8,-3.52 -6.39,-3.97 -11.52,-5.66 -5.02,-1.65 -7.82,-3.28 -13.41,-3.6 0.31,0.24 0.75,0.21 0.93,0.73 0.66,1.8 22.67,8.29 24,8.53z"/>
     <path class="fil8" d="M272.98 297.53c-1.79,-4.48 -2.26,-9.9 -4.79,-12.56 -2.15,-2.26 -8.19,-4.42 -12.07,-4.57 1.64,1.83 -0.98,0.29 2.84,2.41 4.55,2.53 7.11,-0.63 10.34,8.94 2.8,8.27 0.35,3.78 3.68,5.78z"/>
     <path class="fil9" d="M128.49 454.43c3.39,-1.74 9.72,-7.98 11.61,-11.55 -3.65,1.14 -9.75,7.75 -10.57,9.04 -1.41,2.18 -0.18,-0.09 -1.04,2.51z"/>
     <path class="fil10" d="M222.55 507.12c2.47,-1.09 3.63,-1.97 5.49,-3.55 0.33,-0.28 1.79,-1.53 1.91,-1.66 1.82,-1.92 0.15,0.08 1.83,-2.58 -3.01,1.1 -3.2,1.41 -5.11,2.85 -1.14,0.86 -1.16,0.67 -1.91,1.45 -1.9,1.99 -0.88,0.47 -2.21,3.49z"/>
     <path class="fil11" d="M84.23 300.17c1.91,-1.3 2.52,-1.55 3.75,-3.03 2.96,-3.57 1,-0.94 2.24,-4.42 -2.48,1.49 -2.03,0.79 -3.8,2.87 -3.13,3.68 -1,0.73 -2.19,4.58z"/>
     <path class="fil12" d="M329.91 202.74c3.77,-1.87 3.36,-1.91 6,-5.31 -2.53,0.5 -2.56,0.55 -3.91,1.81 -3.9,3.61 0.05,-0.68 -2.09,3.5z"/>
     <path class="fil13" d="M109.34 269.31c2.7,-0.16 0.43,0.81 2.61,-0.79 3,-2.21 1.16,-1.22 1.91,-2.64l-3.62 0.95 -0.9 2.48z"/>
    </g>
    <g>
     <path class="fil14" d="M79.94 457.04c5.58,-3.09 49.38,-47.48 56.7,-55.19 9.48,-9.98 52.95,-51.9 56.07,-56.85 -4.13,1.18 -0.94,-0.3 -3.72,1.68l-68.04 68.06c-5.21,5.04 -9.07,9.09 -13.72,13.75 -4.66,4.68 -24.81,22.99 -27.29,28.55z"/>
     <path class="fil15" d="M364.06 445.53l-1.28 1.51c-0.15,0.19 -0.36,0.49 -0.53,0.71l-3.67 4.46 -17.48 -53.4c-1.02,-1.76 -1.79,-2.08 -2.87,-3.1 0.74,6.56 14.02,43.12 17.68,55.58 1.17,4.01 1.63,4.62 4.84,6.52 1.6,-5.4 2.93,-6.17 3.31,-12.28z"/>
     <path class="fil16" d="M80.07 355.42c4.15,-2.1 1.02,0.4 4.34,-3.51 8.12,-9.58 39.61,-47.2 41.26,-51.32 -4.01,2.34 -3.45,2.57 -6.46,6.11 -2.06,2.44 -3.81,4.69 -5.62,6.91 -6.83,8.42 -30.38,34.67 -33.52,41.81z"/>
     <path class="fil17" d="M49.08 518.46c-0.18,-0.28 -0.45,-1.04 -0.56,-0.83l-1.18 -1.48c-0.16,-0.17 -0.45,-0.41 -0.63,-0.59 -16.18,-16.18 6.54,-28.74 20,-44.04l2.8 -4.01c-5.22,1.62 -3.49,1.14 -6.99,5.43 -2.14,2.63 -3.4,3.68 -5.59,5.86 -3.54,3.5 -8.03,7.55 -11.52,11.36 -13.72,14.95 -2.49,28.36 3.67,28.3z"/>
     <path class="fil18" d="M140.1 442.88c3.75,-1.02 23.02,-21.54 25.8,-24.36 3.65,-3.71 22.94,-21.33 24.67,-26.18 -5.31,3.01 -8.21,7.69 -13.41,12.32l-35.95 36.07c-1.04,1.5 -0.45,0.71 -1.11,2.15z"/>
     <path class="fil19" d="M50.2 518.1c1.95,3.05 -1.56,1.95 4.53,3.09 2.14,0.4 5.52,-0.68 5.57,-0.69 9.27,-3.01 38.93,-34.97 39.76,-37.39 -4.37,1.74 -7.11,5.92 -11.48,10.2 -17.56,17.2 -19.99,25.49 -38.38,24.79z"/>
     <path class="fil20" d="M121.31 199.6l-6.61 -6 23.29 -7.37c9.34,-2.46 5.79,-2.02 7.35,-4.36 -6.99,1.38 -13.06,4.58 -19.56,5.95 -6.98,1.47 -15.12,3.26 -17.51,7.78l13.04 4z"/>
     <path class="fil21" d="M403.98 176.27c2.92,-1.33 4.94,-4.99 5.74,-8.37 1.97,-8.28 -2.2,-15.26 -8.8,-19.16l-8.87 -2.01c-7.92,0.9 -1.68,-0.1 -3.65,1.48 8.15,0.84 14.14,1.17 17.63,8.09 5.05,10.07 -0.7,12.85 -2.05,19.97z"/>
     <path class="fil22" d="M315.93 260.74c3.18,-1.23 17.04,-13.99 20.96,-17.72l6.07 -7.8c-4.45,1.89 -9.42,7.37 -14.3,12.14 -4.31,4.22 -9.61,7.91 -12.73,13.38z"/>
     <path class="fil23" d="M100.06 483.11c4.1,-0.88 2.35,-0.29 4.88,-3.15 4.9,-5.56 22.25,-21.2 23.55,-25.53 -5.42,2.64 -10.92,9.91 -14.73,13.73l-13.7 14.95z"/>
     <path class="fil24" d="M344.03 234.2c4.26,-2.33 22.29,-19.7 24.09,-23.79 -5.38,2.67 -22.64,20.01 -24.09,23.79z"/>
     <path class="fil25" d="M192.21 390.87c4.67,-1.63 1.12,0.44 4.18,-2.44 3.85,-3.6 18.02,-18.08 18.66,-21.1 -4.47,2.3 -7.78,7.01 -11.64,10.94 -2.62,2.65 -3.51,3.61 -5.7,5.76l-5.5 6.84z"/>
     <path class="fil26" d="M237.75 452.47c2.77,-1.26 0.71,0.01 3.74,-1.85l16.22 -13.55c1.4,-1.7 0.32,-0.32 1.71,-2.73 -4.85,2.04 -19.63,14.72 -21.67,18.13z"/>
     <path class="fil27" d="M261.59 475.1c4.45,-1.47 1.66,-0.13 6.07,-3.98 4.45,-3.87 11.3,-8.52 13.54,-12.51 -2.7,1.27 -0.96,0.25 -2.85,1.43 -4.18,2.62 -15.05,11.48 -16.76,15.06z"/>
     <path class="fil28" d="M95.08 286.39c2.96,-1.7 1.63,-0.54 3.97,-3.31 1.31,-1.56 2.11,-2.53 3.73,-4.37 2.84,-3.22 5.22,-5.87 6.56,-9.4 -3.4,1.18 -5.78,5.47 -7.97,8.05 -1.14,1.36 -2.54,2.77 -3.96,4.23 -1.96,2.02 -2.75,0.85 -2.33,4.8z"/>
     <path class="fil29" d="M191.16 491.29c4.64,-2.08 14.32,-9.88 17.08,-14.63 -4.36,2.06 -6.56,4.56 -9.31,6.9 -1.59,1.36 -2.59,1.93 -4.57,3.5 -3.43,2.74 -1.71,0.28 -3.2,4.23z"/>
     <path class="fil30" d="M305.85 225.57c4.2,-1.44 9.86,-7.85 12.05,-11.94 -4.1,1.94 -4.3,3.11 -6.97,5.7 -2.06,2.01 -4.01,3.26 -5.08,6.24z"/>
     <path class="fil31" d="M235.27 496.76c6.49,-1.87 2.03,-2.83 8.19,-4.1 0.74,-0.89 1.04,-3.29 1.14,-3.55 -3.14,1.15 -3.25,1.3 -5.25,2.9 -0.68,0.55 -1.12,0.85 -1.79,1.56 -2.91,3.11 -0.69,0.54 -2.29,3.19z"/>
     <path class="fil32" d="M63.25 324.75c2.02,-1.19 1.03,-0.32 2.58,-1.67 0.85,-0.74 0.95,-0.96 1.69,-1.81 1.92,-2.2 2.18,-2.55 3.39,-5.86 -0.9,0.29 -2.64,0.38 -3.55,1.14 -1.24,6.16 -2.19,1.78 -4.11,8.2z"/>
     <path class="fil33" d="M368.26 524.68c5.87,-1.98 3.49,-2.58 7.27,-5.7l0.34 -4.58c-0.24,0.24 -0.57,0.54 -0.74,0.74l-6.87 9.54z"/>
     <path class="fil34" d="M394.01 185.5c4.02,-2.14 7.83,-5.43 9.97,-9.23 -3.88,1.02 -8.13,5.3 -9.97,9.23z"/>
     <path class="fil35" d="M68.77 368.86c3.97,-1.5 1.13,0.7 4.65,-3.84 1.86,-2.41 2.21,-2.53 3.37,-5.63 -3.96,2.34 -6.26,5.54 -8.02,9.47z"/>
     <path class="fil36" d="M260.63 433.33c2.83,-1.03 2.72,-0.76 4.75,-2.23 3.52,-2.56 1.83,-1.32 3.25,-4.34 -3.6,1.42 -5.61,2.96 -8,6.57z"/>
    </g>
    <g>
     <path class="fil37" d="M364.06 445.53c-0.38,6.11 -1.71,6.88 -3.31,12.28 -3.21,-1.9 -3.67,-2.51 -4.84,-6.52 -3.66,-12.46 -16.94,-49.02 -17.68,-55.58 -3.48,-6.96 -6.27,-21.24 -9.53,-29.54l-24.8 -74.85c-1.81,-5.88 -5,-12.48 -4.28,-14.8l16.31 -15.78c3.12,-5.47 8.42,-9.16 12.73,-13.38 4.88,-4.77 9.85,-10.25 14.3,-12.14 0.5,-1.78 -0.9,-0.49 1.07,-1.02 1.45,-3.78 18.71,-21.12 24.09,-23.79 2.3,-1.84 4.25,-4.48 6.31,-6.51 2.7,-2.67 3.7,-3.62 6.39,-6.18 3.83,-3.66 8.88,-9.73 13.19,-12.22 1.84,-3.93 6.09,-8.21 9.97,-9.23 1.35,-7.12 7.1,-9.9 2.05,-19.97 -3.49,-6.92 -9.48,-7.25 -17.63,-8.09 -0.92,2.03 0.99,0.66 -2.68,2.97 -10.7,6.72 -14.47,15.04 -21.73,18.2 -4.41,5.61 -24.99,22.62 -28.08,28.05 -2.64,3.4 -2.23,3.44 -6,5.31 -1.09,1.54 -10.62,10.25 -12.01,10.89 -2.19,4.09 -7.85,10.5 -12.05,11.94 -0.6,2.39 1.86,0.68 -4.94,6.57 -2.33,2.01 -3.79,3.44 -5.99,5.5 -3.06,2.85 -8.76,9.53 -12.54,11.43 -4.1,3.36 -4.46,4.88 -11.29,3.43 -3.12,-0.65 -7.11,-2.57 -11.17,-3.91 -6.18,-2.04 -16.55,-6.25 -22.3,-7.53 -1.33,-0.24 -23.34,-6.73 -24,-8.53 -0.18,-0.52 -0.62,-0.49 -0.93,-0.73l-69.1 -24.63c-3.74,-1.31 -8.44,-2.52 -12.18,-3.98 -3.13,-1.22 -6.99,-2.93 -10.1,-3.59l-13.04 -4c2.39,-4.52 10.53,-6.31 17.51,-7.78 6.5,-1.37 12.57,-4.57 19.56,-5.95 6.51,-0.03 33.02,-9.75 41.63,-12.17l20.12 -6.89c17.77,-4.31 47.39,-13.71 63.28,-19.27l166.8 -50.79c5.88,-2.16 37.22,-11.97 42.13,-12.1 -0.55,9.77 -11.27,35.37 -14.14,47.22 -3.52,14.6 -9.89,29.72 -14.52,44.54 -8.46,27.08 -22.16,67.71 -28.47,92.26l-58.11 180.86zm-107.94 -165.13c3.88,0.15 9.92,2.31 12.07,4.57 2.53,2.66 3,8.08 4.79,12.56 -0.1,3.65 7.61,23.99 9.41,30.09 3.17,10.75 6.79,21.09 10.25,31.24l30.63 91.61c7.21,18.46 13.77,45.08 20.48,62.11 7.68,19.5 17.57,12.86 24.51,12.1l6.87 -9.54c0.17,-0.2 0.5,-0.5 0.74,-0.74 0.3,-5.54 28.32,-90.52 29.38,-93.2 2.37,-6.01 3.48,-13.13 5.54,-18.67 2.21,-5.93 4.12,-11.44 6.04,-17.74l52.73 -165.76c4.54,-11.99 6.95,-25.73 11.58,-37.69 10.44,-26.94 25.95,-81.12 35.54,-110.92 1.86,-5.76 5.46,-12.93 3.62,-19.2 -7.27,-24.78 -38.56,-2.83 -68.66,3.55l-129.85 40.25c-5.95,2.24 -13.79,3.73 -19.78,5.71 -16.88,5.57 -50.72,14.91 -64.03,20.34l-47.06 13.84c-5.94,1.99 -11.73,3.59 -18.09,5.81 -23.64,8.25 -55.37,15.9 -74.3,22.93 -16.65,6.19 -48.14,11.78 -54.62,19.63 -3.91,4.74 -4.4,13.38 -0.62,18.97 4.92,7.3 23.56,11.52 33.75,15.29l179.08 62.86z"/>
     <path class="fil38" d="M193.01 345.77l-0.3 -0.77c-3.12,4.95 -46.59,46.87 -56.07,56.85 -7.32,7.71 -51.12,52.1 -56.7,55.19l-10.43 10.47 -2.8 4.01c-13.46,15.3 -36.18,27.86 -20,44.04 0.18,0.18 0.47,0.42 0.63,0.59l1.18 1.48c0.11,-0.21 0.38,0.55 0.56,0.83l1.12 -0.36c18.39,0.7 20.82,-7.59 38.38,-24.79 4.37,-4.28 7.11,-8.46 11.48,-10.2l13.7 -14.95c3.81,-3.82 9.31,-11.09 14.73,-13.73 0.86,-2.6 -0.37,-0.33 1.04,-2.51 0.82,-1.29 6.92,-7.9 10.57,-9.04 0.66,-1.44 0.07,-0.65 1.11,-2.15l35.95 -36.07c5.2,-4.63 8.1,-9.31 13.41,-12.32l1.64 -1.47 5.5 -6.84c2.19,-2.15 3.08,-3.11 5.7,-5.76 3.86,-3.93 7.17,-8.64 11.64,-10.94l-0.8 -0.32c1.11,-5.16 3.45,-5.67 1.66,-11.51 -0.37,-1.21 -3.21,-6.09 -4.23,-7.16 -7.08,-7.37 -11.39,-4.16 -18.67,-2.57z"/>
     <path class="fil39" d="M268.63 426.76c-1.42,3.02 0.27,1.78 -3.25,4.34 -2.03,1.47 -1.92,1.2 -4.75,2.23 -0.95,1.98 1.14,0.14 -1.21,1.01 -1.39,2.41 -0.31,1.03 -1.71,2.73l-16.22 13.55c-3.03,1.86 -0.97,0.59 -3.74,1.85 -2.06,2.48 -26.5,23.15 -29.51,24.19 -2.76,4.75 -12.44,12.55 -17.08,14.63 -2.97,3.9 -6.62,8.46 -5.03,16.12 1.13,5.43 4.71,9.29 9.58,11.2 12.49,4.88 18.97,-7.52 26.84,-11.49 1.33,-3.02 0.31,-1.5 2.21,-3.49 0.75,-0.78 0.77,-0.59 1.91,-1.45 1.91,-1.44 2.1,-1.75 5.11,-2.85 0.98,-1 2.54,-2.04 3.49,-2.57 1.6,-2.65 -0.62,-0.08 2.29,-3.19 0.67,-0.71 1.11,-1.01 1.79,-1.56 2,-1.6 2.11,-1.75 5.25,-2.9 0.93,-1.8 15.6,-13.6 16.99,-14.01 1.71,-3.58 12.58,-12.44 16.76,-15.06 1.89,-1.18 0.15,-0.16 2.85,-1.43 6.08,-6.8 18.93,-11.87 14.18,-25.8 -6.4,-18.73 -26.74,-6.05 -26.75,-6.05z"/>
     <path class="fil40" d="M113.86 265.88c-0.75,1.42 1.09,0.43 -1.91,2.64 -2.18,1.6 0.09,0.63 -2.61,0.79 -1.34,3.53 -3.72,6.18 -6.56,9.4 -1.62,1.84 -2.42,2.81 -3.73,4.37 -2.34,2.77 -1.01,1.61 -3.97,3.31l-4.86 6.33c-1.24,3.48 0.72,0.85 -2.24,4.42 -1.23,1.48 -1.84,1.73 -3.75,3.03 -1.49,1.71 -11.79,14.45 -13.32,15.24 -1.21,3.31 -1.47,3.66 -3.39,5.86 -0.74,0.85 -0.84,1.07 -1.69,1.81 -1.55,1.35 -0.56,0.48 -2.58,1.67 -4.7,8.45 -20.08,21.46 -22.03,29.87 -2.04,8.74 1.53,15.08 7.88,18.02 8.66,4.02 14.19,0.24 19.67,-3.78 1.76,-3.93 4.06,-7.13 8.02,-9.47l3.28 -3.97c3.14,-7.14 26.69,-33.39 33.52,-41.81 1.81,-2.22 3.56,-4.47 5.62,-6.91 3.01,-3.54 2.45,-3.77 6.46,-6.11l0.81 -1.78c2.9,-7.16 13.04,-12.77 9.39,-23.61 -1.77,-5.26 -3.24,-6.91 -7.83,-9.08 -5.02,-2.38 -9.45,-0.46 -14.18,-0.24z"/>
    </g>
   </g>
   <g>
    <g>
     <path class="fil41" d="M113.86 265.88c4.73,-0.22 9.16,-2.14 14.18,0.24 4.59,2.17 6.06,3.82 7.83,9.08 3.65,10.84 -6.49,16.45 -9.39,23.61 6.04,-3 15.15,-15.62 11.13,-25.14 -4.27,-10.1 -21.76,-15.47 -23.75,-7.79z"/>
     <path class="fil41" d="M193.01 345.77c7.28,-1.59 11.59,-4.8 18.67,2.57 1.02,1.07 3.86,5.95 4.23,7.16 1.79,5.84 -0.55,6.35 -1.66,11.51 1.12,-0.72 2.61,-0.43 3.65,-4.64 1.39,-5.59 -1.13,-11.7 -4.84,-15.42 -3.66,-3.67 -10.73,-6.68 -16.47,-4.56 -3.48,1.29 -2.5,1.31 -3.58,3.38z"/>
     <path class="fil41" d="M282.38 249.07c3.78,-1.9 9.48,-8.58 12.54,-11.43 2.2,-2.06 3.66,-3.49 5.99,-5.5 6.8,-5.89 4.34,-4.18 4.94,-6.57 -4.57,2.25 -12.89,11.79 -18.06,16.37 -4.84,4.29 -3.49,2.84 -5.41,7.13z"/>
     <path class="fil41" d="M363.99 169.38c7.26,-3.16 11.03,-11.48 21.73,-18.2 3.67,-2.31 1.76,-0.94 2.68,-2.97 -5.15,0.67 -21.24,15.11 -24.41,21.17z"/>
     <path class="fil41" d="M237.62 241.06c-2.8,-3.52 -6.39,-3.97 -11.52,-5.66 -5.02,-1.65 -7.82,-3.28 -13.41,-3.6 0.31,0.24 0.75,0.21 0.93,0.73 0.66,1.8 22.67,8.29 24,8.53z"/>
     <path class="fil41" d="M272.98 297.53c-1.79,-4.48 -2.26,-9.9 -4.79,-12.56 -2.15,-2.26 -8.19,-4.42 -12.07,-4.57 1.64,1.83 -0.98,0.29 2.84,2.41 4.55,2.53 7.11,-0.63 10.34,8.94 2.8,8.27 0.35,3.78 3.68,5.78z"/>
     <path class="fil41" d="M128.49 454.43c3.39,-1.74 9.72,-7.98 11.61,-11.55 -3.65,1.14 -9.75,7.75 -10.57,9.04 -1.41,2.18 -0.18,-0.09 -1.04,2.51z"/>
     <path class="fil41" d="M222.55 507.12c2.47,-1.09 3.63,-1.97 5.49,-3.55 0.33,-0.28 1.79,-1.53 1.91,-1.66 1.82,-1.92 0.15,0.08 1.83,-2.58 -3.01,1.1 -3.2,1.41 -5.11,2.85 -1.14,0.86 -1.16,0.67 -1.91,1.45 -1.9,1.99 -0.88,0.47 -2.21,3.49z"/>
     <path class="fil41" d="M84.23 300.17c1.91,-1.3 2.52,-1.55 3.75,-3.03 2.96,-3.57 1,-0.94 2.24,-4.42 -2.48,1.49 -2.03,0.79 -3.8,2.87 -3.13,3.68 -1,0.73 -2.19,4.58z"/>
     <path class="fil41" d="M329.91 202.74c3.77,-1.87 3.36,-1.91 6,-5.31 -2.53,0.5 -2.56,0.55 -3.91,1.81 -3.9,3.61 0.05,-0.68 -2.09,3.5z"/>
     <path class="fil41" d="M109.34 269.31c2.7,-0.16 0.43,0.81 2.61,-0.79 3,-2.21 1.16,-1.22 1.91,-2.64l-3.62 0.95 -0.9 2.48z"/>
    </g>
    <g>
     <path class="fil41" d="M79.94 457.04c5.58,-3.09 49.38,-47.48 56.7,-55.19 9.48,-9.98 52.95,-51.9 56.07,-56.85 -4.13,1.18 -0.94,-0.3 -3.72,1.68l-68.04 68.06c-5.21,5.04 -9.07,9.09 -13.72,13.75 -4.66,4.68 -24.81,22.99 -27.29,28.55z"/>
     <path class="fil41" d="M364.06 445.53l-1.28 1.51c-0.15,0.19 -0.36,0.49 -0.53,0.71l-3.67 4.46 -17.48 -53.4c-1.02,-1.76 -1.79,-2.08 -2.87,-3.1 0.74,6.56 14.02,43.12 17.68,55.58 1.17,4.01 1.63,4.62 4.84,6.52 1.6,-5.4 2.93,-6.17 3.31,-12.28z"/>
     <path class="fil41" d="M80.07 355.42c4.15,-2.1 1.02,0.4 4.34,-3.51 8.12,-9.58 39.61,-47.2 41.26,-51.32 -4.01,2.34 -3.45,2.57 -6.46,6.11 -2.06,2.44 -3.81,4.69 -5.62,6.91 -6.83,8.42 -30.38,34.67 -33.52,41.81z"/>
     <path class="fil41" d="M49.08 518.46c-0.18,-0.28 -0.45,-1.04 -0.56,-0.83l-1.18 -1.48c-0.16,-0.17 -0.45,-0.41 -0.63,-0.59 -16.18,-16.18 6.54,-28.74 20,-44.04l2.8 -4.01c-5.22,1.62 -3.49,1.14 -6.99,5.43 -2.14,2.63 -3.4,3.68 -5.59,5.86 -3.54,3.5 -8.03,7.55 -11.52,11.36 -13.72,14.95 -2.49,28.36 3.67,28.3z"/>
     <path class="fil41" d="M140.1 442.88c3.75,-1.02 23.02,-21.54 25.8,-24.36 3.65,-3.71 22.94,-21.33 24.67,-26.18 -5.31,3.01 -8.21,7.69 -13.41,12.32l-35.95 36.07c-1.04,1.5 -0.45,0.71 -1.11,2.15z"/>
     <path class="fil41" d="M50.2 518.1c1.95,3.05 -1.56,1.95 4.53,3.09 2.14,0.4 5.52,-0.68 5.57,-0.69 9.27,-3.01 38.93,-34.97 39.76,-37.39 -4.37,1.74 -7.11,5.92 -11.48,10.2 -17.56,17.2 -19.99,25.49 -38.38,24.79z"/>
     <path class="fil41" d="M121.31 199.6l-6.61 -6 23.29 -7.37c9.34,-2.46 5.79,-2.02 7.35,-4.36 -6.99,1.38 -13.06,4.58 -19.56,5.95 -6.98,1.47 -15.12,3.26 -17.51,7.78l13.04 4z"/>
     <path class="fil41" d="M403.98 176.27c2.92,-1.33 4.94,-4.99 5.74,-8.37 1.97,-8.28 -2.2,-15.26 -8.8,-19.16l-8.87 -2.01c-7.92,0.9 -1.68,-0.1 -3.65,1.48 8.15,0.84 14.14,1.17 17.63,8.09 5.05,10.07 -0.7,12.85 -2.05,19.97z"/>
     <path class="fil41" d="M315.93 260.74c3.18,-1.23 17.04,-13.99 20.96,-17.72l6.07 -7.8c-4.45,1.89 -9.42,7.37 -14.3,12.14 -4.31,4.22 -9.61,7.91 -12.73,13.38z"/>
     <path class="fil41" d="M100.06 483.11c4.1,-0.88 2.35,-0.29 4.88,-3.15 4.9,-5.56 22.25,-21.2 23.55,-25.53 -5.42,2.64 -10.92,9.91 -14.73,13.73l-13.7 14.95z"/>
     <path class="fil41" d="M344.03 234.2c4.26,-2.33 22.29,-19.7 24.09,-23.79 -5.38,2.67 -22.64,20.01 -24.09,23.79z"/>
     <path class="fil41" d="M192.21 390.87c4.67,-1.63 1.12,0.44 4.18,-2.44 3.85,-3.6 18.02,-18.08 18.66,-21.1 -4.47,2.3 -7.78,7.01 -11.64,10.94 -2.62,2.65 -3.51,3.61 -5.7,5.76l-5.5 6.84z"/>
     <path class="fil41" d="M237.75 452.47c2.77,-1.26 0.71,0.01 3.74,-1.85l16.22 -13.55c1.4,-1.7 0.32,-0.32 1.71,-2.73 -4.85,2.04 -19.63,14.72 -21.67,18.13z"/>
     <path class="fil41" d="M261.59 475.1c4.45,-1.47 1.66,-0.13 6.07,-3.98 4.45,-3.87 11.3,-8.52 13.54,-12.51 -2.7,1.27 -0.96,0.25 -2.85,1.43 -4.18,2.62 -15.05,11.48 -16.76,15.06z"/>
     <path class="fil41" d="M95.08 286.39c2.96,-1.7 1.63,-0.54 3.97,-3.31 1.31,-1.56 2.11,-2.53 3.73,-4.37 2.84,-3.22 5.22,-5.87 6.56,-9.4 -3.4,1.18 -5.78,5.47 -7.97,8.05 -1.14,1.36 -2.54,2.77 -3.96,4.23 -1.96,2.02 -2.75,0.85 -2.33,4.8z"/>
     <path class="fil41" d="M191.16 491.29c4.64,-2.08 14.32,-9.88 17.08,-14.63 -4.36,2.06 -6.56,4.56 -9.31,6.9 -1.59,1.36 -2.59,1.93 -4.57,3.5 -3.43,2.74 -1.71,0.28 -3.2,4.23z"/>
     <path class="fil41" d="M305.85 225.57c4.2,-1.44 9.86,-7.85 12.05,-11.94 -4.1,1.94 -4.3,3.11 -6.97,5.7 -2.06,2.01 -4.01,3.26 -5.08,6.24z"/>
     <path class="fil41" d="M235.27 496.76c6.49,-1.87 2.03,-2.83 8.19,-4.1 0.74,-0.89 1.04,-3.29 1.14,-3.55 -3.14,1.15 -3.25,1.3 -5.25,2.9 -0.68,0.55 -1.12,0.85 -1.79,1.56 -2.91,3.11 -0.69,0.54 -2.29,3.19z"/>
     <path class="fil41" d="M63.25 324.75c2.02,-1.19 1.03,-0.32 2.58,-1.67 0.85,-0.74 0.95,-0.96 1.69,-1.81 1.92,-2.2 2.18,-2.55 3.39,-5.86 -0.9,0.29 -2.64,0.38 -3.55,1.14 -1.24,6.16 -2.19,1.78 -4.11,8.2z"/>
     <path class="fil41" d="M368.26 524.68c5.87,-1.98 3.49,-2.58 7.27,-5.7l0.34 -4.58c-0.24,0.24 -0.57,0.54 -0.74,0.74l-6.87 9.54z"/>
     <path class="fil41" d="M394.01 185.5c4.02,-2.14 7.83,-5.43 9.97,-9.23 -3.88,1.02 -8.13,5.3 -9.97,9.23z"/>
     <path class="fil41" d="M68.77 368.86c3.97,-1.5 1.13,0.7 4.65,-3.84 1.86,-2.41 2.21,-2.53 3.37,-5.63 -3.96,2.34 -6.26,5.54 -8.02,9.47z"/>
     <path class="fil41" d="M260.63 433.33c2.83,-1.03 2.72,-0.76 4.75,-2.23 3.52,-2.56 1.83,-1.32 3.25,-4.34 -3.6,1.42 -5.61,2.96 -8,6.57z"/>
    </g>
    <g>
     <path class="fil41" d="M364.06 445.53c-0.38,6.11 -1.71,6.88 -3.31,12.28 -3.21,-1.9 -3.67,-2.51 -4.84,-6.52 -3.66,-12.46 -16.94,-49.02 -17.68,-55.58 -3.48,-6.96 -6.27,-21.24 -9.53,-29.54l-24.8 -74.85c-1.81,-5.88 -5,-12.48 -4.28,-14.8l16.31 -15.78c3.12,-5.47 8.42,-9.16 12.73,-13.38 4.88,-4.77 9.85,-10.25 14.3,-12.14 0.5,-1.78 -0.9,-0.49 1.07,-1.02 1.45,-3.78 18.71,-21.12 24.09,-23.79 2.3,-1.84 4.25,-4.48 6.31,-6.51 2.7,-2.67 3.7,-3.62 6.39,-6.18 3.83,-3.66 8.88,-9.73 13.19,-12.22 1.84,-3.93 6.09,-8.21 9.97,-9.23 1.35,-7.12 7.1,-9.9 2.05,-19.97 -3.49,-6.92 -9.48,-7.25 -17.63,-8.09 -0.92,2.03 0.99,0.66 -2.68,2.97 -10.7,6.72 -14.47,15.04 -21.73,18.2 -4.41,5.61 -24.99,22.62 -28.08,28.05 -2.64,3.4 -2.23,3.44 -6,5.31 -1.09,1.54 -10.62,10.25 -12.01,10.89 -2.19,4.09 -7.85,10.5 -12.05,11.94 -0.6,2.39 1.86,0.68 -4.94,6.57 -2.33,2.01 -3.79,3.44 -5.99,5.5 -3.06,2.85 -8.76,9.53 -12.54,11.43 -4.1,3.36 -4.46,4.88 -11.29,3.43 -3.12,-0.65 -7.11,-2.57 -11.17,-3.91 -6.18,-2.04 -16.55,-6.25 -22.3,-7.53 -1.33,-0.24 -23.34,-6.73 -24,-8.53 -0.18,-0.52 -0.62,-0.49 -0.93,-0.73l-69.1 -24.63c-3.74,-1.31 -8.44,-2.52 -12.18,-3.98 -3.13,-1.22 -6.99,-2.93 -10.1,-3.59l-13.04 -4c2.39,-4.52 10.53,-6.31 17.51,-7.78 6.5,-1.37 12.57,-4.57 19.56,-5.95 6.51,-0.03 33.02,-9.75 41.63,-12.17l20.12 -6.89c17.77,-4.31 47.39,-13.71 63.28,-19.27l166.8 -50.79c5.88,-2.16 37.22,-11.97 42.13,-12.1 -0.55,9.77 -11.27,35.37 -14.14,47.22 -3.52,14.6 -9.89,29.72 -14.52,44.54 -8.46,27.08 -22.16,67.71 -28.47,92.26l-58.11 180.86zm-107.94 -165.13c3.88,0.15 9.92,2.31 12.07,4.57 2.53,2.66 3,8.08 4.79,12.56 -0.1,3.65 7.61,23.99 9.41,30.09 3.17,10.75 6.79,21.09 10.25,31.24l30.63 91.61c7.21,18.46 13.77,45.08 20.48,62.11 7.68,19.5 17.57,12.86 24.51,12.1l6.87 -9.54c0.17,-0.2 0.5,-0.5 0.74,-0.74 0.3,-5.54 28.32,-90.52 29.38,-93.2 2.37,-6.01 3.48,-13.13 5.54,-18.67 2.21,-5.93 4.12,-11.44 6.04,-17.74l52.73 -165.76c4.54,-11.99 6.95,-25.73 11.58,-37.69 10.44,-26.94 25.95,-81.12 35.54,-110.92 1.86,-5.76 5.46,-12.93 3.62,-19.2 -7.27,-24.78 -38.56,-2.83 -68.66,3.55l-129.85 40.25c-5.95,2.24 -13.79,3.73 -19.78,5.71 -16.88,5.57 -50.72,14.91 -64.03,20.34l-47.06 13.84c-5.94,1.99 -11.73,3.59 -18.09,5.81 -23.64,8.25 -55.37,15.9 -74.3,22.93 -16.65,6.19 -48.14,11.78 -54.62,19.63 -3.91,4.74 -4.4,13.38 -0.62,18.97 4.92,7.3 23.56,11.52 33.75,15.29l179.08 62.86z"/>
     <path class="fil41" d="M193.01 345.77l-0.3 -0.77c-3.12,4.95 -46.59,46.87 -56.07,56.85 -7.32,7.71 -51.12,52.1 -56.7,55.19l-10.43 10.47 -2.8 4.01c-13.46,15.3 -36.18,27.86 -20,44.04 0.18,0.18 0.47,0.42 0.63,0.59l1.18 1.48c0.11,-0.21 0.38,0.55 0.56,0.83l1.12 -0.36c18.39,0.7 20.82,-7.59 38.38,-24.79 4.37,-4.28 7.11,-8.46 11.48,-10.2l13.7 -14.95c3.81,-3.82 9.31,-11.09 14.73,-13.73 0.86,-2.6 -0.37,-0.33 1.04,-2.51 0.82,-1.29 6.92,-7.9 10.57,-9.04 0.66,-1.44 0.07,-0.65 1.11,-2.15l35.95 -36.07c5.2,-4.63 8.1,-9.31 13.41,-12.32l1.64 -1.47 5.5 -6.84c2.19,-2.15 3.08,-3.11 5.7,-5.76 3.86,-3.93 7.17,-8.64 11.64,-10.94l-0.8 -0.32c1.11,-5.16 3.45,-5.67 1.66,-11.51 -0.37,-1.21 -3.21,-6.09 -4.23,-7.16 -7.08,-7.37 -11.39,-4.16 -18.67,-2.57z"/>
     <path class="fil41" d="M268.63 426.76c-1.42,3.02 0.27,1.78 -3.25,4.34 -2.03,1.47 -1.92,1.2 -4.75,2.23 -0.95,1.98 1.14,0.14 -1.21,1.01 -1.39,2.41 -0.31,1.03 -1.71,2.73l-16.22 13.55c-3.03,1.86 -0.97,0.59 -3.74,1.85 -2.06,2.48 -26.5,23.15 -29.51,24.19 -2.76,4.75 -12.44,12.55 -17.08,14.63 -2.97,3.9 -6.62,8.46 -5.03,16.12 1.13,5.43 4.71,9.29 9.58,11.2 12.49,4.88 18.97,-7.52 26.84,-11.49 1.33,-3.02 0.31,-1.5 2.21,-3.49 0.75,-0.78 0.77,-0.59 1.91,-1.45 1.91,-1.44 2.1,-1.75 5.11,-2.85 0.98,-1 2.54,-2.04 3.49,-2.57 1.6,-2.65 -0.62,-0.08 2.29,-3.19 0.67,-0.71 1.11,-1.01 1.79,-1.56 2,-1.6 2.11,-1.75 5.25,-2.9 0.93,-1.8 15.6,-13.6 16.99,-14.01 1.71,-3.58 12.58,-12.44 16.76,-15.06 1.89,-1.18 0.15,-0.16 2.85,-1.43 6.08,-6.8 18.93,-11.87 14.18,-25.8 -6.4,-18.73 -26.74,-6.05 -26.75,-6.05z"/>
     <path class="fil41" d="M113.86 265.88c-0.75,1.42 1.09,0.43 -1.91,2.64 -2.18,1.6 0.09,0.63 -2.61,0.79 -1.34,3.53 -3.72,6.18 -6.56,9.4 -1.62,1.84 -2.42,2.81 -3.73,4.37 -2.34,2.77 -1.01,1.61 -3.97,3.31l-4.86 6.33c-1.24,3.48 0.72,0.85 -2.24,4.42 -1.23,1.48 -1.84,1.73 -3.75,3.03 -1.49,1.71 -11.79,14.45 -13.32,15.24 -1.21,3.31 -1.47,3.66 -3.39,5.86 -0.74,0.85 -0.84,1.07 -1.69,1.81 -1.55,1.35 -0.56,0.48 -2.58,1.67 -4.7,8.45 -20.08,21.46 -22.03,29.87 -2.04,8.74 1.53,15.08 7.88,18.02 8.66,4.02 14.19,0.24 19.67,-3.78 1.76,-3.93 4.06,-7.13 8.02,-9.47l3.28 -3.97c3.14,-7.14 26.69,-33.39 33.52,-41.81 1.81,-2.22 3.56,-4.47 5.62,-6.91 3.01,-3.54 2.45,-3.77 6.46,-6.11l0.81 -1.78c2.9,-7.16 13.04,-12.77 9.39,-23.61 -1.77,-5.26 -3.24,-6.91 -7.83,-9.08 -5.02,-2.38 -9.45,-0.46 -14.18,-0.24z"/>
    </g>
   </g>
  </g>
 </g>
</svg>
